<svg xmlns="http://www.w3.org/2000/svg" version="1.1" style="font-family:Lato, &#x27;Helvetica Neue&#x27;, Helvetica, Arial, sans-serif;font-size:18px;background-color:white;text-rendering:geometricPrecision;-webkit-font-smoothing:antialiased" width="850" height="600" viewBox="0 0 850 600"><g class="HeaderView"><g transform="translate(774, 15) scale(0.29)"><svg className="owidLog" width="210" height="120" viewBox="0 0 210 120" fill="none" xmlns="http://www.w3.org/2000/svg">
<g clip-path="url(#clip0)">
  <path d="M0 0h210v107.89H0V0z" fill="#002147" />
  <path
    d="M40.98 32.25c0 2.36-.38 4.53-1.12 6.51a14.26 14.26 0 0 1-8.1 8.4c-1.9.78-4.02 1.17-6.34 1.17-2.31 0-4.42-.39-6.33-1.17a14.31 14.31 0 0 1-8.08-8.4 18.29 18.29 0 0 1-1.12-6.51c0-2.36.38-4.53 1.12-6.5.75-1.97 1.8-3.67 3.17-5.1a14.32 14.32 0 0 1 4.9-3.34c1.92-.8 4.03-1.19 6.34-1.19 2.32 0 4.43.4 6.34 1.19 1.92.8 3.56 1.9 4.93 3.34a14.87 14.87 0 0 1 3.17 5.1 18.1 18.1 0 0 1 1.12 6.5zm-4.38 0c0-1.94-.26-3.68-.8-5.22a10.91 10.91 0 0 0-2.24-3.89 9.68 9.68 0 0 0-3.52-2.46 11.95 11.95 0 0 0-4.62-.86c-1.68 0-3.21.28-4.6.86a9.88 9.88 0 0 0-3.54 2.46 10.91 10.91 0 0 0-2.24 3.9c-.53 1.53-.8 3.27-.8 5.2 0 1.94.27 3.68.8 5.22a11.17 11.17 0 0 0 2.24 3.9 10.01 10.01 0 0 0 3.55 2.44c1.38.56 2.9.83 4.6.83s3.24-.27 4.61-.83a9.8 9.8 0 0 0 3.52-2.44 11.17 11.17 0 0 0 2.25-3.9c.53-1.54.8-3.28.8-5.21zm26.22-6.54V48H60.5c-.56 0-.9-.27-1.05-.81l-.31-2.4a12.45 12.45 0 0 1-3.26 2.6c-1.2.64-2.58.96-4.13.96-1.22 0-2.3-.2-3.24-.6a6.52 6.52 0 0 1-2.33-1.7 7.37 7.37 0 0 1-1.43-2.67c-.3-1.04-.46-2.2-.46-3.45V25.7h3.91v14.22c0 1.68.38 2.99 1.15 3.91.77.93 1.96 1.39 3.54 1.39 1.16 0 2.24-.27 3.23-.82a10.42 10.42 0 0 0 2.8-2.28V25.7h3.91zm8.61 4.47a9.94 9.94 0 0 1 2.6-3.56 5.64 5.64 0 0 1 3.76-1.3c.47 0 .92.05 1.34.15.44.1.83.27 1.17.49l-.3 2.92c-.09.37-.3.55-.66.55-.2 0-.5-.04-.9-.13a6.21 6.21 0 0 0-3.24.18 4.23 4.23 0 0 0-1.47.92c-.42.4-.81.9-1.17 1.5-.33.58-.64 1.26-.92 2.02V48H67.7V25.71h2.25c.42 0 .72.08.88.25.16.16.27.44.33.83l.26 3.39zm61.16-13.7L122.75 48h-3.82l-7.99-24.05a21.95 21.95 0 0 1-.42-1.58 38.36 38.36 0 0 1-.44 1.58L102.05 48h-3.83L88.4 16.47h3.54c.38 0 .7.1.95.29.26.2.43.43.5.73l6.52 21.9.28 1.28.29 1.46.3-1.46.38-1.27 7.41-21.91c.1-.25.26-.48.51-.69.27-.22.58-.33.95-.33h1.23c.38 0 .69.1.92.29a1.77 1.77 0 0 1 .53.73l7.4 21.9a28.4 28.4 0 0 1 .68 2.62 29.52 29.52 0 0 1 .52-2.61l6.54-21.91a1.31 1.31 0 0 1 .48-.7c.27-.21.58-.32.95-.32h3.32zm9.35 8.88c1.63 0 3.1.27 4.4.82a9.43 9.43 0 0 1 5.46 5.94c.5 1.4.74 2.98.74 4.73 0 1.76-.25 3.34-.74 4.75a9.43 9.43 0 0 1-5.46 5.92c-1.3.52-2.77.79-4.4.79-1.64 0-3.12-.27-4.44-.8a9.42 9.42 0 0 1-3.35-2.3c-.92-1-1.63-2.2-2.13-3.61-.49-1.41-.73-3-.73-4.75s.24-3.33.73-4.73c.5-1.43 1.2-2.64 2.13-3.63.93-1 2.04-1.77 3.35-2.31 1.32-.55 2.8-.82 4.44-.82zm0 19.89c2.2 0 3.84-.73 4.93-2.2 1.08-1.48 1.63-3.54 1.63-6.18 0-2.66-.55-4.72-1.63-6.2-1.09-1.49-2.73-2.23-4.93-2.23-1.12 0-2.09.2-2.93.57a5.71 5.71 0 0 0-2.06 1.65c-.55.72-.96 1.61-1.24 2.67-.26 1.04-.4 2.22-.4 3.54 0 2.64.55 4.7 1.64 6.18 1.1 1.47 2.76 2.2 4.99 2.2zm17.97-15.07a9.94 9.94 0 0 1 2.6-3.56 5.64 5.64 0 0 1 3.76-1.3c.47 0 .91.05 1.34.15.44.1.83.27 1.16.49l-.28 2.92c-.09.37-.31.55-.66.55-.2 0-.5-.04-.9-.13a6.2 6.2 0 0 0-3.24.18 4.23 4.23 0 0 0-1.47.92c-.43.4-.82.9-1.17 1.5a13.1 13.1 0 0 0-.92 2.02V48h-3.94V25.71h2.24c.43 0 .72.08.88.25.17.16.28.44.33.83l.27 3.39zm15.04-14.59V48h-3.92V15.6h3.92zm19.55 15.43a6.22 6.22 0 0 0-2.38-2.05 6.7 6.7 0 0 0-2.86-.6c-2.07 0-3.66.75-4.77 2.23-1.12 1.48-1.68 3.6-1.68 6.33 0 1.46.13 2.7.38 3.74a7.29 7.29 0 0 0 1.1 2.56 4.35 4.35 0 0 0 1.78 1.45c.7.3 1.5.46 2.4.46 1.29 0 2.41-.3 3.36-.88a9.6 9.6 0 0 0 2.67-2.49V31.02zm3.91-15.43V48h-2.33c-.56 0-.9-.27-1.06-.81l-.35-2.71a12.13 12.13 0 0 1-3.25 2.77 8.28 8.28 0 0 1-4.23 1.06 7.31 7.31 0 0 1-6.14-2.9c-.73-.96-1.3-2.15-1.69-3.57a18.35 18.35 0 0 1 .07-9.48 11.29 11.29 0 0 1 1.89-3.7 8.7 8.7 0 0 1 7.06-3.34 7.96 7.96 0 0 1 6.12 2.62V15.59h3.91zM46.61 70.71V93H42.7V70.71h3.91zm.84-7c0 .39-.08.75-.24 1.09-.15.32-.35.61-.62.88-.25.25-.55.44-.9.59a2.67 2.67 0 0 1-2.16 0 2.9 2.9 0 0 1-1.45-1.47 2.67 2.67 0 0 1 0-2.16c.15-.35.35-.65.6-.9.25-.27.53-.47.85-.62a2.67 2.67 0 0 1 2.16 0c.35.15.65.35.9.62.27.25.47.55.62.9.16.34.24.7.24 1.08zm7.97 10.24c.49-.54 1-1.04 1.54-1.48a9.85 9.85 0 0 1 3.66-1.84 8.96 8.96 0 0 1 5.43.35c.94.4 1.72.97 2.33 1.71.63.74 1.11 1.62 1.43 2.67.32 1.04.49 2.19.49 3.45V93h-3.94V78.81c0-1.69-.4-3-1.17-3.92-.76-.93-1.93-1.4-3.5-1.4-1.15 0-2.24.27-3.25.83-1 .56-1.92 1.31-2.77 2.27V93h-3.94V70.71h2.35c.56 0 .9.28 1.04.82l.3 2.42zm57.7 3.3c0 2.36-.37 4.5-1.11 6.44a14.3 14.3 0 0 1-3.17 4.98c-1.37 1.37-3 2.45-4.93 3.2-1.9.76-4.02 1.13-6.33 1.13H85.8V61.47h11.77c2.31 0 4.42.39 6.33 1.15a13.8 13.8 0 0 1 8.1 8.18 17.75 17.75 0 0 1 1.12 6.45zm-4.37 0c0-1.94-.26-3.67-.8-5.2a10.94 10.94 0 0 0-2.23-3.87 9.57 9.57 0 0 0-3.53-2.42 12.23 12.23 0 0 0-4.61-.83h-7.5v24.62h7.5c1.7 0 3.24-.28 4.61-.84a9.7 9.7 0 0 0 3.53-2.4 10.94 10.94 0 0 0 2.24-3.87c.53-1.53.8-3.26.8-5.2zm19.8 5.72c-1.8.06-3.34.2-4.62.44-1.26.22-2.3.51-3.1.88-.8.36-1.37.8-1.74 1.3-.35.5-.53 1.05-.53 1.67 0 .58.1 1.1.3 1.52a3 3 0 0 0 .76 1.05c.34.27.73.46 1.17.6a6.13 6.13 0 0 0 1.45.17 7.28 7.28 0 0 0 3.5-.81 11.95 11.95 0 0 0 2.82-2.2v-4.62zm-12.65-9.11a12.73 12.73 0 0 1 3.98-2.66c1.43-.59 3-.88 4.73-.88 1.25 0 2.36.2 3.33.61a6.81 6.81 0 0 1 3.94 4.38c.33 1.04.5 2.19.5 3.43V93h-1.74a1.8 1.8 0 0 1-.88-.18c-.2-.13-.36-.38-.48-.74l-.44-2.12-1.72 1.46a9.48 9.48 0 0 1-3.74 1.7c-.69.15-1.46.23-2.3.23-.87 0-1.69-.12-2.45-.35a5.34 5.34 0 0 1-3.34-2.93 6.64 6.64 0 0 1-.49-2.64c0-.88.25-1.72.73-2.53a6.33 6.33 0 0 1 2.35-2.17c1.09-.63 2.5-1.15 4.25-1.54 1.75-.41 3.89-.65 6.42-.7v-1.75c0-1.73-.37-3.03-1.12-3.91-.75-.9-1.84-1.34-3.28-1.34-.97 0-1.78.12-2.44.37-.64.23-1.2.5-1.7.81l-1.23.82c-.33.23-.67.35-1 .35-.27 0-.5-.07-.69-.2a2.1 2.1 0 0 1-.48-.53l-.7-1.25zm27.67 19.5c-1.76 0-3.12-.5-4.07-1.48-.94-.98-1.41-2.4-1.41-4.25V74h-2.68a.9.9 0 0 1-.6-.2c-.16-.14-.24-.36-.24-.66v-1.56l3.65-.46.9-6.89c.05-.22.14-.4.29-.52a.88.88 0 0 1 .62-.22H142v7.67h6.44V74H142v13.38c0 .94.22 1.63.68 2.09.45.45 1.04.68 1.76.68a3.21 3.21 0 0 0 1.85-.53l.55-.35c.16-.12.3-.18.41-.18.2 0 .4.13.55.38l1.15 1.87a7.45 7.45 0 0 1-2.44 1.5 8.53 8.53 0 0 1-2.95.52zm19.68-10.4c-1.8.07-3.34.21-4.62.45-1.26.22-2.3.51-3.1.88-.8.36-1.37.8-1.74 1.3-.35.5-.53 1.05-.53 1.67 0 .58.1 1.1.3 1.52a2.9 2.9 0 0 0 .76 1.05c.34.27.73.46 1.17.6a6.13 6.13 0 0 0 1.45.17 7.3 7.3 0 0 0 3.5-.81 12.04 12.04 0 0 0 2.82-2.2v-4.62zm-12.65-9.1a12.72 12.72 0 0 1 3.99-2.66c1.42-.59 3-.88 4.72-.88 1.25 0 2.36.2 3.33.61a6.81 6.81 0 0 1 3.94 4.38c.33 1.04.5 2.19.5 3.43V93h-1.74a1.8 1.8 0 0 1-.88-.18c-.2-.13-.36-.38-.48-.74l-.44-2.12-1.72 1.46a9.48 9.48 0 0 1-3.74 1.7c-.69.15-1.46.23-2.3.23-.87 0-1.69-.12-2.45-.35a5.33 5.33 0 0 1-3.34-2.93 6.62 6.62 0 0 1-.49-2.64c0-.88.25-1.72.73-2.53a6.33 6.33 0 0 1 2.35-2.17c1.09-.63 2.5-1.15 4.25-1.54 1.74-.41 3.89-.65 6.42-.7v-1.75c0-1.73-.37-3.03-1.12-3.91-.75-.9-1.84-1.34-3.28-1.34-.97 0-1.78.12-2.44.37-.64.23-1.2.5-1.7.81l-1.22.82c-.34.23-.68.35-1.02.35-.26 0-.49-.07-.68-.2a1.88 1.88 0 0 1-.48-.53l-.7-1.25zM40.98 32.25c0 2.36-.38 4.53-1.12 6.51a14.26 14.26 0 0 1-8.1 8.4c-1.9.78-4.02 1.17-6.34 1.17-2.31 0-4.42-.39-6.33-1.17a14.31 14.31 0 0 1-8.08-8.4 18.29 18.29 0 0 1-1.12-6.51c0-2.36.38-4.53 1.12-6.5.75-1.97 1.8-3.67 3.17-5.1a14.32 14.32 0 0 1 4.9-3.34c1.92-.8 4.03-1.19 6.34-1.19 2.32 0 4.43.4 6.34 1.19 1.92.8 3.56 1.9 4.93 3.34a14.87 14.87 0 0 1 3.17 5.1 18.1 18.1 0 0 1 1.12 6.5zm-4.38 0c0-1.94-.26-3.68-.8-5.22a10.91 10.91 0 0 0-2.24-3.89 9.68 9.68 0 0 0-3.52-2.46 11.95 11.95 0 0 0-4.62-.86c-1.68 0-3.21.28-4.6.86a9.88 9.88 0 0 0-3.54 2.46 10.91 10.91 0 0 0-2.24 3.9c-.53 1.53-.8 3.27-.8 5.2 0 1.94.27 3.68.8 5.22a11.17 11.17 0 0 0 2.24 3.9 10.01 10.01 0 0 0 3.55 2.44c1.38.56 2.9.83 4.6.83s3.24-.27 4.61-.83a9.8 9.8 0 0 0 3.52-2.44 11.17 11.17 0 0 0 2.25-3.9c.53-1.54.8-3.28.8-5.21zm26.22-6.54V48H60.5c-.56 0-.9-.27-1.05-.81l-.31-2.4a12.45 12.45 0 0 1-3.26 2.6c-1.2.64-2.58.96-4.13.96-1.22 0-2.3-.2-3.24-.6a6.52 6.52 0 0 1-2.33-1.7 7.37 7.37 0 0 1-1.43-2.67c-.3-1.04-.46-2.2-.46-3.45V25.7h3.91v14.22c0 1.68.38 2.99 1.15 3.91.77.93 1.96 1.39 3.54 1.39 1.16 0 2.24-.27 3.23-.82a10.42 10.42 0 0 0 2.8-2.28V25.7h3.91zm8.61 4.47a9.94 9.94 0 0 1 2.6-3.56 5.64 5.64 0 0 1 3.76-1.3c.47 0 .92.05 1.34.15.44.1.83.27 1.17.49l-.3 2.92c-.09.37-.3.55-.66.55-.2 0-.5-.04-.9-.13a6.21 6.21 0 0 0-3.24.18 4.23 4.23 0 0 0-1.47.92c-.42.4-.81.9-1.17 1.5-.33.58-.64 1.26-.92 2.02V48H67.7V25.71h2.25c.42 0 .72.08.88.25.16.16.27.44.33.83l.26 3.39zm61.16-13.7L122.75 48h-3.82l-7.99-24.05a21.95 21.95 0 0 1-.42-1.58 38.36 38.36 0 0 1-.44 1.58L102.05 48h-3.83L88.4 16.47h3.54c.38 0 .7.1.95.29.26.2.43.43.5.73l6.52 21.9.28 1.28.29 1.46.3-1.46.38-1.27 7.41-21.91c.1-.25.26-.48.51-.69.27-.22.58-.33.95-.33h1.23c.38 0 .69.1.92.29a1.77 1.77 0 0 1 .53.73l7.4 21.9a28.4 28.4 0 0 1 .68 2.62 29.52 29.52 0 0 1 .52-2.61l6.54-21.91a1.31 1.31 0 0 1 .48-.7c.27-.21.58-.32.95-.32h3.32zm9.35 8.88c1.63 0 3.1.27 4.4.82a9.43 9.43 0 0 1 5.46 5.94c.5 1.4.74 2.98.74 4.73 0 1.76-.25 3.34-.74 4.75a9.43 9.43 0 0 1-5.46 5.92c-1.3.52-2.77.79-4.4.79-1.64 0-3.12-.27-4.44-.8a9.42 9.42 0 0 1-3.35-2.3c-.92-1-1.63-2.2-2.13-3.61-.49-1.41-.73-3-.73-4.75s.24-3.33.73-4.73c.5-1.43 1.2-2.64 2.13-3.63.93-1 2.04-1.77 3.35-2.31 1.32-.55 2.8-.82 4.44-.82zm0 19.89c2.2 0 3.84-.73 4.93-2.2 1.08-1.48 1.63-3.54 1.63-6.18 0-2.66-.55-4.72-1.63-6.2-1.09-1.49-2.73-2.23-4.93-2.23-1.12 0-2.09.2-2.93.57a5.71 5.71 0 0 0-2.06 1.65c-.55.72-.96 1.61-1.24 2.67-.26 1.04-.4 2.22-.4 3.54 0 2.64.55 4.7 1.64 6.18 1.1 1.47 2.76 2.2 4.99 2.2zm17.97-15.07a9.94 9.94 0 0 1 2.6-3.56 5.64 5.64 0 0 1 3.76-1.3c.47 0 .91.05 1.34.15.44.1.83.27 1.16.49l-.28 2.92c-.09.37-.31.55-.66.55-.2 0-.5-.04-.9-.13a6.2 6.2 0 0 0-3.24.18 4.23 4.23 0 0 0-1.47.92c-.43.4-.82.9-1.17 1.5a13.1 13.1 0 0 0-.92 2.02V48h-3.94V25.71h2.24c.43 0 .72.08.88.25.17.16.28.44.33.83l.27 3.39zm15.04-14.59V48h-3.92V15.6h3.92zm19.55 15.43a6.22 6.22 0 0 0-2.38-2.05 6.7 6.7 0 0 0-2.86-.6c-2.07 0-3.66.75-4.77 2.23-1.12 1.48-1.68 3.6-1.68 6.33 0 1.46.13 2.7.38 3.74a7.29 7.29 0 0 0 1.1 2.56 4.35 4.35 0 0 0 1.78 1.45c.7.3 1.5.46 2.4.46 1.29 0 2.41-.3 3.36-.88a9.6 9.6 0 0 0 2.67-2.49V31.02zm3.91-15.43V48h-2.33c-.56 0-.9-.27-1.06-.81l-.35-2.71a12.13 12.13 0 0 1-3.25 2.77 8.28 8.28 0 0 1-4.23 1.06 7.31 7.31 0 0 1-6.14-2.9c-.73-.96-1.3-2.15-1.69-3.57a18.35 18.35 0 0 1 .07-9.48 11.29 11.29 0 0 1 1.89-3.7 8.7 8.7 0 0 1 7.06-3.34 7.96 7.96 0 0 1 6.12 2.62V15.59h3.91zM46.61 70.71V93H42.7V70.71h3.91zm.84-7c0 .39-.08.75-.24 1.09-.15.32-.35.61-.62.88-.25.25-.55.44-.9.59a2.67 2.67 0 0 1-2.16 0 2.9 2.9 0 0 1-1.45-1.47 2.67 2.67 0 0 1 0-2.16c.15-.35.35-.65.6-.9.25-.27.53-.47.85-.62a2.67 2.67 0 0 1 2.16 0c.35.15.65.35.9.62.27.25.47.55.62.9.16.34.24.7.24 1.08zm7.97 10.24c.49-.54 1-1.04 1.54-1.48a9.85 9.85 0 0 1 3.66-1.84 8.96 8.96 0 0 1 5.43.35c.94.4 1.72.97 2.33 1.71.63.74 1.11 1.62 1.43 2.67.32 1.04.49 2.19.49 3.45V93h-3.94V78.81c0-1.69-.4-3-1.17-3.92-.76-.93-1.93-1.4-3.5-1.4-1.15 0-2.24.27-3.25.83-1 .56-1.92 1.31-2.77 2.27V93h-3.94V70.71h2.35c.56 0 .9.28 1.04.82l.3 2.42zm57.7 3.3c0 2.36-.37 4.5-1.11 6.44a14.3 14.3 0 0 1-3.17 4.98c-1.37 1.37-3 2.45-4.93 3.2-1.9.76-4.02 1.13-6.33 1.13H85.8V61.47h11.77c2.31 0 4.42.39 6.33 1.15a13.8 13.8 0 0 1 8.1 8.18 17.75 17.75 0 0 1 1.12 6.45zm-4.37 0c0-1.94-.26-3.67-.8-5.2a10.94 10.94 0 0 0-2.23-3.87 9.57 9.57 0 0 0-3.53-2.42 12.23 12.23 0 0 0-4.61-.83h-7.5v24.62h7.5c1.7 0 3.24-.28 4.61-.84a9.7 9.7 0 0 0 3.53-2.4 10.94 10.94 0 0 0 2.24-3.87c.53-1.53.8-3.26.8-5.2zm19.8 5.72c-1.8.06-3.34.2-4.62.44-1.26.22-2.3.51-3.1.88-.8.36-1.37.8-1.74 1.3-.35.5-.53 1.05-.53 1.67 0 .58.1 1.1.3 1.52a3 3 0 0 0 .76 1.05c.34.27.73.46 1.17.6a6.13 6.13 0 0 0 1.45.17 7.28 7.28 0 0 0 3.5-.81 11.95 11.95 0 0 0 2.82-2.2v-4.62zm-12.65-9.11a12.73 12.73 0 0 1 3.98-2.66c1.43-.59 3-.88 4.73-.88 1.25 0 2.36.2 3.33.61a6.81 6.81 0 0 1 3.94 4.38c.33 1.04.5 2.19.5 3.43V93h-1.74a1.8 1.8 0 0 1-.88-.18c-.2-.13-.36-.38-.48-.74l-.44-2.12-1.72 1.46a9.48 9.48 0 0 1-3.74 1.7c-.69.15-1.46.23-2.3.23-.87 0-1.69-.12-2.45-.35a5.34 5.34 0 0 1-3.34-2.93 6.64 6.64 0 0 1-.49-2.64c0-.88.25-1.72.73-2.53a6.33 6.33 0 0 1 2.35-2.17c1.09-.63 2.5-1.15 4.25-1.54 1.75-.41 3.89-.65 6.42-.7v-1.75c0-1.73-.37-3.03-1.12-3.91-.75-.9-1.84-1.34-3.28-1.34-.97 0-1.78.12-2.44.37-.64.23-1.2.5-1.7.81l-1.23.82c-.33.23-.67.35-1 .35-.27 0-.5-.07-.69-.2a2.1 2.1 0 0 1-.48-.53l-.7-1.25zm27.67 19.5c-1.76 0-3.12-.5-4.07-1.48-.94-.98-1.41-2.4-1.41-4.25V74h-2.68a.9.9 0 0 1-.6-.2c-.16-.14-.24-.36-.24-.66v-1.56l3.65-.46.9-6.89c.05-.22.14-.4.29-.52a.88.88 0 0 1 .62-.22H142v7.67h6.44V74H142v13.38c0 .94.22 1.63.68 2.09.45.45 1.04.68 1.76.68a3.21 3.21 0 0 0 1.85-.53l.55-.35c.16-.12.3-.18.41-.18.2 0 .4.13.55.38l1.15 1.87a7.45 7.45 0 0 1-2.44 1.5 8.53 8.53 0 0 1-2.95.52zm19.68-10.4c-1.8.07-3.34.21-4.62.45-1.26.22-2.3.51-3.1.88-.8.36-1.37.8-1.74 1.3-.35.5-.53 1.05-.53 1.67 0 .58.1 1.1.3 1.52a2.9 2.9 0 0 0 .76 1.05c.34.27.73.46 1.17.6a6.13 6.13 0 0 0 1.45.17 7.3 7.3 0 0 0 3.5-.81 12.04 12.04 0 0 0 2.82-2.2v-4.62zm-12.65-9.1a12.72 12.72 0 0 1 3.99-2.66c1.42-.59 3-.88 4.72-.88 1.25 0 2.36.2 3.33.61a6.81 6.81 0 0 1 3.94 4.38c.33 1.04.5 2.19.5 3.43V93h-1.74a1.8 1.8 0 0 1-.88-.18c-.2-.13-.36-.38-.48-.74l-.44-2.12-1.72 1.46a9.48 9.48 0 0 1-3.74 1.7c-.69.15-1.46.23-2.3.23-.87 0-1.69-.12-2.45-.35a5.33 5.33 0 0 1-3.34-2.93 6.62 6.62 0 0 1-.49-2.64c0-.88.25-1.72.73-2.53a6.33 6.33 0 0 1 2.35-2.17c1.09-.63 2.5-1.15 4.25-1.54 1.74-.41 3.89-.65 6.42-.7v-1.75c0-1.73-.37-3.03-1.12-3.91-.75-.9-1.84-1.34-3.28-1.34-.97 0-1.78.12-2.44.37-.64.23-1.2.5-1.7.81l-1.22.82c-.34.23-.68.35-1.02.35-.26 0-.49-.07-.68-.2a1.88 1.88 0 0 1-.48-.53l-.7-1.25zM40.98 32.25c0 2.36-.38 4.53-1.12 6.51a14.26 14.26 0 0 1-8.1 8.4c-1.9.78-4.02 1.17-6.34 1.17-2.31 0-4.42-.39-6.33-1.17a14.31 14.31 0 0 1-8.08-8.4 18.29 18.29 0 0 1-1.12-6.51c0-2.36.38-4.53 1.12-6.5.75-1.97 1.8-3.67 3.17-5.1a14.32 14.32 0 0 1 4.9-3.34c1.92-.8 4.03-1.19 6.34-1.19 2.32 0 4.43.4 6.34 1.19 1.92.8 3.56 1.9 4.93 3.34a14.87 14.87 0 0 1 3.17 5.1 18.1 18.1 0 0 1 1.12 6.5zm-4.38 0c0-1.94-.26-3.68-.8-5.22a10.91 10.91 0 0 0-2.24-3.89 9.68 9.68 0 0 0-3.52-2.46 11.95 11.95 0 0 0-4.62-.86c-1.68 0-3.21.28-4.6.86a9.88 9.88 0 0 0-3.54 2.46 10.91 10.91 0 0 0-2.24 3.9c-.53 1.53-.8 3.27-.8 5.2 0 1.94.27 3.68.8 5.22a11.17 11.17 0 0 0 2.24 3.9 10.01 10.01 0 0 0 3.55 2.44c1.38.56 2.9.83 4.6.83s3.24-.27 4.61-.83a9.8 9.8 0 0 0 3.52-2.44 11.17 11.17 0 0 0 2.25-3.9c.53-1.54.8-3.28.8-5.21zm26.22-6.54V48H60.5c-.56 0-.9-.27-1.05-.81l-.31-2.4a12.45 12.45 0 0 1-3.26 2.6c-1.2.64-2.58.96-4.13.96-1.22 0-2.3-.2-3.24-.6a6.52 6.52 0 0 1-2.33-1.7 7.37 7.37 0 0 1-1.43-2.67c-.3-1.04-.46-2.2-.46-3.45V25.7h3.91v14.22c0 1.68.38 2.99 1.15 3.91.77.93 1.96 1.39 3.54 1.39 1.16 0 2.24-.27 3.23-.82a10.42 10.42 0 0 0 2.8-2.28V25.7h3.91zm8.61 4.47a9.94 9.94 0 0 1 2.6-3.56 5.64 5.64 0 0 1 3.76-1.3c.47 0 .92.05 1.34.15.44.1.83.27 1.17.49l-.3 2.92c-.09.37-.3.55-.66.55-.2 0-.5-.04-.9-.13a6.21 6.21 0 0 0-3.24.18 4.23 4.23 0 0 0-1.47.92c-.42.4-.81.9-1.17 1.5-.33.58-.64 1.26-.92 2.02V48H67.7V25.71h2.25c.42 0 .72.08.88.25.16.16.27.44.33.83l.26 3.39zm61.16-13.7L122.75 48h-3.82l-7.99-24.05a21.95 21.95 0 0 1-.42-1.58 38.36 38.36 0 0 1-.44 1.58L102.05 48h-3.83L88.4 16.47h3.54c.38 0 .7.1.95.29.26.2.43.43.5.73l6.52 21.9.28 1.28.29 1.46.3-1.46.38-1.27 7.41-21.91c.1-.25.26-.48.51-.69.27-.22.58-.33.95-.33h1.23c.38 0 .69.1.92.29a1.77 1.77 0 0 1 .53.73l7.4 21.9a28.4 28.4 0 0 1 .68 2.62 29.52 29.52 0 0 1 .52-2.61l6.54-21.91a1.31 1.31 0 0 1 .48-.7c.27-.21.58-.32.95-.32h3.32zm9.35 8.88c1.63 0 3.1.27 4.4.82a9.43 9.43 0 0 1 5.46 5.94c.5 1.4.74 2.98.74 4.73 0 1.76-.25 3.34-.74 4.75a9.43 9.43 0 0 1-5.46 5.92c-1.3.52-2.77.79-4.4.79-1.64 0-3.12-.27-4.44-.8a9.42 9.42 0 0 1-3.35-2.3c-.92-1-1.63-2.2-2.13-3.61-.49-1.41-.73-3-.73-4.75s.24-3.33.73-4.73c.5-1.43 1.2-2.64 2.13-3.63.93-1 2.04-1.77 3.35-2.31 1.32-.55 2.8-.82 4.44-.82zm0 19.89c2.2 0 3.84-.73 4.93-2.2 1.08-1.48 1.63-3.54 1.63-6.18 0-2.66-.55-4.72-1.63-6.2-1.09-1.49-2.73-2.23-4.93-2.23-1.12 0-2.09.2-2.93.57a5.71 5.71 0 0 0-2.06 1.65c-.55.72-.96 1.61-1.24 2.67-.26 1.04-.4 2.22-.4 3.54 0 2.64.55 4.7 1.64 6.18 1.1 1.47 2.76 2.2 4.99 2.2zm17.97-15.07a9.94 9.94 0 0 1 2.6-3.56 5.64 5.64 0 0 1 3.76-1.3c.47 0 .91.05 1.34.15.44.1.83.27 1.16.49l-.28 2.92c-.09.37-.31.55-.66.55-.2 0-.5-.04-.9-.13a6.2 6.2 0 0 0-3.24.18 4.23 4.23 0 0 0-1.47.92c-.43.4-.82.9-1.17 1.5a13.1 13.1 0 0 0-.92 2.02V48h-3.94V25.71h2.24c.43 0 .72.08.88.25.17.16.28.44.33.83l.27 3.39zm15.04-14.59V48h-3.92V15.6h3.92zm19.55 15.43a6.22 6.22 0 0 0-2.38-2.05 6.7 6.7 0 0 0-2.86-.6c-2.07 0-3.66.75-4.77 2.23-1.12 1.48-1.68 3.6-1.68 6.33 0 1.46.13 2.7.38 3.74a7.29 7.29 0 0 0 1.1 2.56 4.35 4.35 0 0 0 1.78 1.45c.7.3 1.5.46 2.4.46 1.29 0 2.41-.3 3.36-.88a9.6 9.6 0 0 0 2.67-2.49V31.02zm3.91-15.43V48h-2.33c-.56 0-.9-.27-1.06-.81l-.35-2.71a12.13 12.13 0 0 1-3.25 2.77 8.28 8.28 0 0 1-4.23 1.06 7.31 7.31 0 0 1-6.14-2.9c-.73-.96-1.3-2.15-1.69-3.57a18.35 18.35 0 0 1 .07-9.48 11.29 11.29 0 0 1 1.89-3.7 8.7 8.7 0 0 1 7.06-3.34 7.96 7.96 0 0 1 6.12 2.62V15.59h3.91zM46.61 70.71V93H42.7V70.71h3.91zm.84-7c0 .39-.08.75-.24 1.09-.15.32-.35.61-.62.88-.25.25-.55.44-.9.59a2.67 2.67 0 0 1-2.16 0 2.9 2.9 0 0 1-1.45-1.47 2.67 2.67 0 0 1 0-2.16c.15-.35.35-.65.6-.9.25-.27.53-.47.85-.62a2.67 2.67 0 0 1 2.16 0c.35.15.65.35.9.62.27.25.47.55.62.9.16.34.24.7.24 1.08zm7.97 10.24c.49-.54 1-1.04 1.54-1.48a9.85 9.85 0 0 1 3.66-1.84 8.96 8.96 0 0 1 5.43.35c.94.4 1.72.97 2.33 1.71.63.74 1.11 1.62 1.43 2.67.32 1.04.49 2.19.49 3.45V93h-3.94V78.81c0-1.69-.4-3-1.17-3.92-.76-.93-1.93-1.4-3.5-1.4-1.15 0-2.24.27-3.25.83-1 .56-1.92 1.31-2.77 2.27V93h-3.94V70.71h2.35c.56 0 .9.28 1.04.82l.3 2.42zm57.7 3.3c0 2.36-.37 4.5-1.11 6.44a14.3 14.3 0 0 1-3.17 4.98c-1.37 1.37-3 2.45-4.93 3.2-1.9.76-4.02 1.13-6.33 1.13H85.8V61.47h11.77c2.31 0 4.42.39 6.33 1.15a13.8 13.8 0 0 1 8.1 8.18 17.75 17.75 0 0 1 1.12 6.45zm-4.37 0c0-1.94-.26-3.67-.8-5.2a10.94 10.94 0 0 0-2.23-3.87 9.57 9.57 0 0 0-3.53-2.42 12.23 12.23 0 0 0-4.61-.83h-7.5v24.62h7.5c1.7 0 3.24-.28 4.61-.84a9.7 9.7 0 0 0 3.53-2.4 10.94 10.94 0 0 0 2.24-3.87c.53-1.53.8-3.26.8-5.2zm19.8 5.72c-1.8.06-3.34.2-4.62.44-1.26.22-2.3.51-3.1.88-.8.36-1.37.8-1.74 1.3-.35.5-.53 1.05-.53 1.67 0 .58.1 1.1.3 1.52a3 3 0 0 0 .76 1.05c.34.27.73.46 1.17.6a6.13 6.13 0 0 0 1.45.17 7.28 7.28 0 0 0 3.5-.81 11.95 11.95 0 0 0 2.82-2.2v-4.62zm-12.65-9.11a12.73 12.73 0 0 1 3.98-2.66c1.43-.59 3-.88 4.73-.88 1.25 0 2.36.2 3.33.61a6.81 6.81 0 0 1 3.94 4.38c.33 1.04.5 2.19.5 3.43V93h-1.74a1.8 1.8 0 0 1-.88-.18c-.2-.13-.36-.38-.48-.74l-.44-2.12-1.72 1.46a9.48 9.48 0 0 1-3.74 1.7c-.69.15-1.46.23-2.3.23-.87 0-1.69-.12-2.45-.35a5.34 5.34 0 0 1-3.34-2.93 6.64 6.64 0 0 1-.49-2.64c0-.88.25-1.72.73-2.53a6.33 6.33 0 0 1 2.35-2.17c1.09-.63 2.5-1.15 4.25-1.54 1.75-.41 3.89-.65 6.42-.7v-1.75c0-1.73-.37-3.03-1.12-3.91-.75-.9-1.84-1.34-3.28-1.34-.97 0-1.78.12-2.44.37-.64.23-1.2.5-1.7.81l-1.23.82c-.33.23-.67.35-1 .35-.27 0-.5-.07-.69-.2a2.1 2.1 0 0 1-.48-.53l-.7-1.25zm27.67 19.5c-1.76 0-3.12-.5-4.07-1.48-.94-.98-1.41-2.4-1.41-4.25V74h-2.68a.9.9 0 0 1-.6-.2c-.16-.14-.24-.36-.24-.66v-1.56l3.65-.46.9-6.89c.05-.22.14-.4.29-.52a.88.88 0 0 1 .62-.22H142v7.67h6.44V74H142v13.38c0 .94.22 1.63.68 2.09.45.45 1.04.68 1.76.68a3.21 3.21 0 0 0 1.85-.53l.55-.35c.16-.12.3-.18.41-.18.2 0 .4.13.55.38l1.15 1.87a7.45 7.45 0 0 1-2.44 1.5 8.53 8.53 0 0 1-2.95.52zm19.68-10.4c-1.8.07-3.34.21-4.62.45-1.26.22-2.3.51-3.1.88-.8.36-1.37.8-1.74 1.3-.35.5-.53 1.05-.53 1.67 0 .58.1 1.1.3 1.52a2.9 2.9 0 0 0 .76 1.05c.34.27.73.46 1.17.6a6.13 6.13 0 0 0 1.45.17 7.3 7.3 0 0 0 3.5-.81 12.04 12.04 0 0 0 2.82-2.2v-4.62zm-12.65-9.1a12.72 12.72 0 0 1 3.99-2.66c1.42-.59 3-.88 4.72-.88 1.25 0 2.36.2 3.33.61a6.81 6.81 0 0 1 3.94 4.38c.33 1.04.5 2.19.5 3.43V93h-1.74a1.8 1.8 0 0 1-.88-.18c-.2-.13-.36-.38-.48-.74l-.44-2.12-1.72 1.46a9.48 9.48 0 0 1-3.74 1.7c-.69.15-1.46.23-2.3.23-.87 0-1.69-.12-2.45-.35a5.33 5.33 0 0 1-3.34-2.93 6.62 6.62 0 0 1-.49-2.64c0-.88.25-1.72.73-2.53a6.33 6.33 0 0 1 2.35-2.17c1.09-.63 2.5-1.15 4.25-1.54 1.74-.41 3.89-.65 6.42-.7v-1.75c0-1.73-.37-3.03-1.12-3.91-.75-.9-1.84-1.34-3.28-1.34-.97 0-1.78.12-2.44.37-.64.23-1.2.5-1.7.81l-1.22.82c-.34.23-.68.35-1.02.35-.26 0-.49-.07-.68-.2a1.88 1.88 0 0 1-.48-.53l-.7-1.25z"
    fill="#fff"
  />
  <path fill="#D42B21" d="M0 106.79h210V120H0z" />
</g>
<defs>
  <clipPath id="clip0"><path fill="#fff" d="M0 0h210v120H0z" /></clipPath>
</defs>
</svg></g><a href="https://ourworldindata.org/grapher/agricultural-area-per-capita" style="font-family:&quot;Playfair Display&quot;, Georgia, &quot;Times New Roman&quot;, serif" target="_blank" rel="noopener"><text font-size="25.20" x="15.0" y="35.2" fill="#555"><tspan x="15" y="35.160000000000004">Agricultural land per capita</tspan></text></a><text font-size="14.40" x="15.0" y="55.7" fill="#666"><tspan x="15" y="55.72">Agricultural land is the sum of cropland and land used as pasture for grazing livestock.</tspan></text></g><g class="LineChart"><defs><clipPath id="boundsClip-2"><rect x="55.36" y="66.6" width="840" height="490.79999999999995"></rect></clipPath></defs><g class="DualAxisView"><g class="HorizontalAxis"><line x1="65.4" y1="526.1999999999999" x2="65.4" y2="531.1999999999999" stroke="#999"></line><line x1="694" y1="526.1999999999999" x2="694" y2="531.1999999999999" stroke="#999"></line><line x1="164.6" y1="526.1999999999999" x2="164.6" y2="531.1999999999999" stroke="#999"></line><line x1="274.9" y1="526.1999999999999" x2="274.9" y2="531.1999999999999" stroke="#999"></line><line x1="385.2" y1="526.1999999999999" x2="385.2" y2="531.1999999999999" stroke="#999"></line><line x1="495.5" y1="526.1999999999999" x2="495.5" y2="531.1999999999999" stroke="#999"></line><line x1="605.8" y1="526.1999999999999" x2="605.8" y2="531.1999999999999" stroke="#999"></line><text x="65.36" y="547.4" fill="#666" text-anchor="start" font-size="16.2">1961</text><text x="694.025" y="547.4" fill="#666" text-anchor="end" font-size="16.2">2018</text><text x="164.6" y="547.4" fill="#666" text-anchor="middle" font-size="16.2">1970</text><text x="274.9" y="547.4" fill="#666" text-anchor="middle" font-size="16.2">1980</text><text x="385.2" y="547.4" fill="#666" text-anchor="middle" font-size="16.2">1990</text><text x="495.5" y="547.4" fill="#666" text-anchor="middle" font-size="16.2">2000</text><text x="605.8" y="547.4" fill="#666" text-anchor="middle" font-size="16.2">2010</text></g><g class="VerticalAxis"><text x="60.36" y="526.2" dy=".32em" text-anchor="end" fill="#666" font-size="16.2">0 ha</text><text x="60.36" y="463.6" dy=".32em" text-anchor="end" fill="#666" font-size="16.2">0.5 ha</text><text x="60.36" y="400.9" dy=".32em" text-anchor="end" fill="#666" font-size="16.2">1 ha</text><text x="60.36" y="338.3" dy=".32em" text-anchor="end" fill="#666" font-size="16.2">1.5 ha</text><text x="60.36" y="275.7" dy=".32em" text-anchor="end" fill="#666" font-size="16.2">2 ha</text><text x="60.36" y="213" dy=".32em" text-anchor="end" fill="#666" font-size="16.2">2.5 ha</text><text x="60.36" y="150.4" dy=".32em" text-anchor="end" fill="#666" font-size="16.2">3 ha</text><text x="60.36" y="87.8" dy=".32em" text-anchor="end" fill="#666" font-size="16.2">3.5 ha</text></g><g class="AxisGridLines horizontalLines"><line x1="65.36" y1="526.2" x2="694.02" y2="526.2" stroke="#999"></line><line x1="65.36" y1="463.6" x2="694.02" y2="463.6" stroke="#ddd" stroke-dasharray="3,2"></line><line x1="65.36" y1="400.9" x2="694.02" y2="400.9" stroke="#ddd" stroke-dasharray="3,2"></line><line x1="65.36" y1="338.3" x2="694.02" y2="338.3" stroke="#ddd" stroke-dasharray="3,2"></line><line x1="65.36" y1="275.7" x2="694.02" y2="275.7" stroke="#ddd" stroke-dasharray="3,2"></line><line x1="65.36" y1="213" x2="694.02" y2="213" stroke="#ddd" stroke-dasharray="3,2"></line><line x1="65.36" y1="150.4" x2="694.02" y2="150.4" stroke="#ddd" stroke-dasharray="3,2"></line><line x1="65.36" y1="87.8" x2="694.02" y2="87.8" stroke="#ddd" stroke-dasharray="3,2"></line></g></g><g clip-path="url(#boundsClip-2)"><g class="LineLabels" style="cursor:default"><g class="legendMark"><g class="indicator"><path d="M698.025,355.4 H711.525 V353.25 H725.025" stroke="#999" stroke-width="0.5" fill="none"></path></g><rect x="694.025" y="346.5" width="123.83000000000001" height="13.5" fill="#fff" opacity="0"></rect><text font-size="13.50" font-weight="400" x="729.0" y="357.3" fill="#b13507"><tspan x="729.025" y="357.3">South America</tspan></text></g><g class="legendMark"><g class="indicator"><path d="M698.025,366.6 H711.525 V368.75 H725.025" stroke="#999" stroke-width="0.5" fill="none"></path></g><rect x="694.025" y="362" width="140.97500000000002" height="13.5" fill="#fff" opacity="0"></rect><text font-size="13.50" font-weight="400" x="729.0" y="372.8" fill="#00847e"><tspan x="729.025" y="372.8">Northern America</tspan></text></g><g class="legendMark"><g class="indicator"><path d="M698.025,416.1 H711.525 V416.1 H725.025" stroke="#999" stroke-width="0.5" fill="none"></path></g><rect x="694.025" y="409.35" width="69.56" height="13.5" fill="#fff" opacity="0"></rect><text font-size="13.50" font-weight="400" x="729.0" y="420.2" fill="#3c4e66"><tspan x="729.025" y="420.15000000000003">Africa</tspan></text></g><g class="legendMark"><g class="indicator"><path d="M698.025,447.4 H711.525 V447.4 H725.025" stroke="#999" stroke-width="0.5" fill="none"></path></g><rect x="694.025" y="440.65" width="70.235" height="13.5" fill="#fff" opacity="0"></rect><text font-size="13.50" font-weight="400" x="729.0" y="451.4" fill="#ca2628"><tspan x="729.025" y="451.45">World</tspan></text></g><g class="legendMark"><g class="indicator"><path d="M698.025,477.3 H707.025 V474.26666666666665 H725.025" stroke="#999" stroke-width="0.5" fill="none"></path></g><rect x="694.025" y="467.51666666666665" width="111.81500000000001" height="13.5" fill="#fff" opacity="0"></rect><text font-size="13.50" font-weight="400" x="729.0" y="478.3" fill="#6d3e91"><tspan x="729.025" y="478.31666666666666">Eastern Asia</tspan></text></g><g class="legendMark"><g class="indicator"><path d="M698.025,492.3 H716.025 V489.76666666666665 H725.025" stroke="#999" stroke-width="0.5" fill="none"></path></g><rect x="694.025" y="483.01666666666665" width="132.875" height="13.5" fill="#fff" opacity="0"></rect><text font-size="13.50" font-weight="400" x="729.0" y="493.8" fill="#cf0a66"><tspan x="729.025" y="493.81666666666666">Western Europe</tspan></text></g><g class="legendMark"><g class="indicator"><path d="M698.025,499.7 H716.025 V505.26666666666665 H725.025" stroke="#999" stroke-width="0.5" fill="none"></path></g><rect x="694.025" y="498.51666666666665" width="126.26" height="13.5" fill="#fff" opacity="0"></rect><text font-size="13.50" font-weight="400" x="729.0" y="509.3" fill="#883039"><tspan x="729.025" y="509.31666666666666">Southeast Asia</tspan></text></g></g><g class="Lines"><rect x="65" y="77" width="629" height="450" fill="rgba(255,255,255,0)" opacity="0"></rect><g><path stroke-linecap="round" stroke-linejoin="round" stroke="#ddd" d="M65.4 478.9L76.4 479.9L87.4 480.8L98.4 481.7L109.5 482.8L120.5 483.7L131.5 484.6L142.6 485.6L153.6 486.6L164.6 487.4L175.7 488.7L186.7 489.2L197.7 489.9L208.7 490.3L219.8 490.8L230.8 491.3L241.8 491.6L252.9 492.2L263.9 492.6L274.9 493.2L285.9 493.7L297 494.2L308 494.9L319 495.8L330.1 495.3L341.1 495.3L352.1 494.9L363.1 495.1L374.2 495.4L385.2 495.8L396.2 497.2L407.3 497.8L418.3 498.1L429.3 498.6L440.4 498.8L451.4 499.1L462.4 499.4L473.4 499.8L484.5 499.6L495.5 499.5L506.5 499.6L517.6 499.8L528.6 499.4L539.6 499.1L550.6 499.6L561.7 499.9L572.7 499.7L583.7 499.6L594.8 499.3L605.8 499.4L616.8 499.5L627.8 499.6L638.9 499.7L649.9 499.9L660.9 499.8L672 499.5L683 499.4L694 499.7" fill="none" stroke-width="1"></path></g><g><path stroke-linecap="round" stroke-linejoin="round" stroke="#ddd" d="M65.4 474.6L76.4 475.3L87.4 475.9L98.4 476.6L109.5 477.1L120.5 477.8L131.5 478.4L142.6 479.2L153.6 479.6L164.6 480.6L175.7 480.8L186.7 481.1L197.7 481.5L208.7 481.7L219.8 481.9L230.8 482.3L241.8 482.5L252.9 482.6L263.9 482.8L274.9 483.2L285.9 483.3L297 483.4L308 483.7L319 483.8L330.1 484L341.1 484.2L352.1 484.5L363.1 485L374.2 485.4L385.2 485.7L396.2 486.7L407.3 487.1L418.3 487.2L429.3 487.4L440.4 487.6L451.4 487.7L462.4 487.9L473.4 488L484.5 488.2L495.5 488.5L506.5 488.8L517.6 489L528.6 489.2L539.6 489.4L550.6 489.6L561.7 489.8L572.7 490L583.7 490.2L594.8 490.4L605.8 490.7L616.8 490.9L627.8 491.1L638.9 491.3L649.9 491.5L660.9 491.6L672 491.9L683 492.1L694 492.3" fill="none" stroke-width="1"></path></g><g><path stroke-linecap="round" stroke-linejoin="round" stroke="#ddd" d="M65.4 450.4L76.4 451.2L87.4 452.1L98.4 453.1L109.5 454.1L120.5 455.2L131.5 456.5L142.6 457.8L153.6 459L164.6 460.1L175.7 461.1L186.7 462L197.7 462.7L208.7 463.3L219.8 463.9L230.8 466L241.8 466.2L252.9 466.4L263.9 466.9L274.9 467.2L285.9 467.5L297 467.3L308 467L319 466.7L330.1 466.4L341.1 466.8L352.1 467.3L363.1 467.8L374.2 468.2L385.2 468.4L396.2 468.6L407.3 469.2L418.3 469.8L429.3 469.9L440.4 470.4L451.4 470.9L462.4 470.4L473.4 470.8L484.5 471.1L495.5 471.5L506.5 471.8L517.6 472.1L528.6 473.7L539.6 473.9L550.6 474.2L561.7 474.3L572.7 474.6L583.7 474.8L594.8 475L605.8 475.3L616.8 475.6L627.8 475.8L638.9 476.1L649.9 476.4L660.9 476.6L672 476.9L683 477.1L694 477.3" fill="none" stroke-width="1"></path></g><g><path stroke-linecap="round" stroke-linejoin="round" stroke="#ddd" d="M65.4 219.1L76.4 225.5L87.4 230.9L98.4 235.9L109.5 241L120.5 244.3L131.5 247.5L142.6 250.1L153.6 253L164.6 256.2L175.7 259.5L186.7 262.5L197.7 265.6L208.7 268.6L219.8 271L230.8 273.4L241.8 275.9L252.9 279.5L263.9 282L274.9 284.5L285.9 287L297 287.7L308 290L319 292.3L330.1 294.5L341.1 296.8L352.1 301L363.1 303.2L374.2 305.3L385.2 307.4L396.2 309.5L407.3 312.3L418.3 315.6L429.3 318.6L440.4 321.3L451.4 325.3L462.4 328.3L473.4 330.9L484.5 333.5L495.5 335.4L506.5 337.1L517.6 339.3L528.6 341L539.6 342.7L550.6 344.5L561.7 346.6L572.7 348.6L583.7 351.3L594.8 353.8L605.8 356.3L616.8 358.7L627.8 360.7L638.9 361.8L649.9 362.8L660.9 363.8L672 364.7L683 365.6L694 366.6" fill="none" stroke-width="1"></path></g><g><path stroke-linecap="round" stroke-linejoin="round" stroke="#ddd" d="M65.4 345.1L76.4 348.1L87.4 351.1L98.4 354.1L109.5 356.9L120.5 360.1L131.5 363L142.6 365.1L153.6 368L164.6 371.6L175.7 374.2L186.7 376.9L197.7 379.2L208.7 381.7L219.8 384.2L230.8 386.7L241.8 389.1L252.9 391.1L263.9 393.2L274.9 395.1L285.9 397.3L297 399.1L308 401.1L319 402.5L330.1 403.9L341.1 406L352.1 407.8L363.1 409.5L374.2 411.3L385.2 413.4L396.2 415.4L407.3 416.2L418.3 418.2L429.3 419.3L440.4 420.8L451.4 422.1L462.4 423.1L473.4 424.2L484.5 425.4L495.5 426.7L506.5 427.9L517.6 429.3L528.6 430.8L539.6 432.7L550.6 433.7L561.7 434.8L572.7 436L583.7 437.3L594.8 438.4L605.8 439.4L616.8 440.8L627.8 441.8L638.9 442.9L649.9 443.9L660.9 445.2L672 446.1L683 446.3L694 447.4" fill="none" stroke-width="1"></path></g><g><path stroke-linecap="round" stroke-linejoin="round" stroke="#ddd" d="M65.4 158.4L76.4 165.3L87.4 172.4L98.4 179.1L109.5 185.4L120.5 191.7L131.5 198L142.6 203.5L153.6 208.2L164.6 213L175.7 216.1L186.7 220.2L197.7 224.6L208.7 228.4L219.8 232.3L230.8 235.3L241.8 238.2L252.9 242L263.9 245.1L274.9 248.3L285.9 252.9L297 257.1L308 261.6L319 265.7L330.1 269.9L341.1 274.9L352.1 280.4L363.1 286L374.2 291.1L385.2 296.4L396.2 300.9L407.3 305.4L418.3 309.5L429.3 313.3L440.4 317.2L451.4 319.4L462.4 322.3L473.4 324.9L484.5 327.6L495.5 331.7L506.5 335.5L517.6 337.2L528.6 339.1L539.6 340.2L550.6 340.9L561.7 341.9L572.7 342.5L583.7 343.8L594.8 345.3L605.8 345.9L616.8 347.3L627.8 348.1L638.9 348.7L649.9 351.1L660.9 352.5L672 354L683 354L694 355.4" fill="none" stroke-width="1"></path></g><g><path stroke-linecap="round" stroke-linejoin="round" stroke="#ddd" d="M65.4 76.6L76.4 87.1L87.4 96.5L98.4 106.5L109.5 115.7L120.5 126.4L131.5 135.4L142.6 144.5L153.6 151.7L164.6 161.9L175.7 170.3L186.7 180.7L197.7 188.2L208.7 198.3L219.8 207L230.8 215.2L241.8 224.7L252.9 232.9L263.9 241.1L274.9 248L285.9 257.4L297 264.4L308 271.1L319 277.1L330.1 282.6L341.1 287.2L352.1 293.3L363.1 298.6L374.2 303.9L385.2 312.5L396.2 319.7L407.3 324L418.3 331.2L429.3 335.1L440.4 338.5L451.4 342.9L462.4 346.7L473.4 350.6L484.5 354L495.5 357.6L506.5 360.9L517.6 364.4L528.6 367.2L539.6 370.5L550.6 373.1L561.7 376.6L572.7 379.8L583.7 382.7L594.8 385.7L605.8 388.9L616.8 396.7L627.8 399L638.9 401.8L649.9 404.8L660.9 407.8L672 410.6L683 413.4L694 416.1" fill="none" stroke-width="1"></path></g><g><path fill="none" stroke-linecap="butt" stroke-linejoin="round" stroke="#fff" stroke-width="2.5" d="M65.4 478.9L76.4 479.9L87.4 480.8L98.4 481.7L109.5 482.8L120.5 483.7L131.5 484.6L142.6 485.6L153.6 486.6L164.6 487.4L175.7 488.7L186.7 489.2L197.7 489.9L208.7 490.3L219.8 490.8L230.8 491.3L241.8 491.6L252.9 492.2L263.9 492.6L274.9 493.2L285.9 493.7L297 494.2L308 494.9L319 495.8L330.1 495.3L341.1 495.3L352.1 494.9L363.1 495.1L374.2 495.4L385.2 495.8L396.2 497.2L407.3 497.8L418.3 498.1L429.3 498.6L440.4 498.8L451.4 499.1L462.4 499.4L473.4 499.8L484.5 499.6L495.5 499.5L506.5 499.6L517.6 499.8L528.6 499.4L539.6 499.1L550.6 499.6L561.7 499.9L572.7 499.7L583.7 499.6L594.8 499.3L605.8 499.4L616.8 499.5L627.8 499.6L638.9 499.7L649.9 499.9L660.9 499.8L672 499.5L683 499.4L694 499.7"></path><polyline points="65.40,478.90 76.40,479.90 87.40,480.80 98.40,481.70 109.50,482.80 120.50,483.70 131.50,484.60 142.60,485.60 153.60,486.60 164.60,487.40 175.70,488.70 186.70,489.20 197.70,489.90 208.70,490.30 219.80,490.80 230.80,491.30 241.80,491.60 252.90,492.20 263.90,492.60 274.90,493.20 285.90,493.70 297.00,494.20 308.00,494.90 319.00,495.80 330.10,495.30 341.10,495.30 352.10,494.90 363.10,495.10 374.20,495.40 385.20,495.80 396.20,497.20 407.30,497.80 418.30,498.10 429.30,498.60 440.40,498.80 451.40,499.10 462.40,499.40 473.40,499.80 484.50,499.60 495.50,499.50 506.50,499.60 517.60,499.80 528.60,499.40 539.60,499.10 550.60,499.60 561.70,499.90 572.70,499.70 583.70,499.60 594.80,499.30 605.80,499.40 616.80,499.50 627.80,499.60 638.90,499.70 649.90,499.90 660.90,499.80 672.00,499.50 683.00,499.40 694.00,499.70" stroke-linejoin="round" stroke-width="1.5" stroke="#883039" fill="none" stroke-linecap="butt"></polyline><g><circle cx="65.4" cy="478.9" r="1.8" fill="#883039"></circle><circle cx="76.4" cy="479.9" r="1.8" fill="#883039"></circle><circle cx="87.4" cy="480.8" r="1.8" fill="#883039"></circle><circle cx="98.4" cy="481.7" r="1.8" fill="#883039"></circle><circle cx="109.5" cy="482.8" r="1.8" fill="#883039"></circle><circle cx="120.5" cy="483.7" r="1.8" fill="#883039"></circle><circle cx="131.5" cy="484.6" r="1.8" fill="#883039"></circle><circle cx="142.6" cy="485.6" r="1.8" fill="#883039"></circle><circle cx="153.6" cy="486.6" r="1.8" fill="#883039"></circle><circle cx="164.6" cy="487.4" r="1.8" fill="#883039"></circle><circle cx="175.7" cy="488.7" r="1.8" fill="#883039"></circle><circle cx="186.7" cy="489.2" r="1.8" fill="#883039"></circle><circle cx="197.7" cy="489.9" r="1.8" fill="#883039"></circle><circle cx="208.7" cy="490.3" r="1.8" fill="#883039"></circle><circle cx="219.8" cy="490.8" r="1.8" fill="#883039"></circle><circle cx="230.8" cy="491.3" r="1.8" fill="#883039"></circle><circle cx="241.8" cy="491.6" r="1.8" fill="#883039"></circle><circle cx="252.9" cy="492.2" r="1.8" fill="#883039"></circle><circle cx="263.9" cy="492.6" r="1.8" fill="#883039"></circle><circle cx="274.9" cy="493.2" r="1.8" fill="#883039"></circle><circle cx="285.9" cy="493.7" r="1.8" fill="#883039"></circle><circle cx="297" cy="494.2" r="1.8" fill="#883039"></circle><circle cx="308" cy="494.9" r="1.8" fill="#883039"></circle><circle cx="319" cy="495.8" r="1.8" fill="#883039"></circle><circle cx="330.1" cy="495.3" r="1.8" fill="#883039"></circle><circle cx="341.1" cy="495.3" r="1.8" fill="#883039"></circle><circle cx="352.1" cy="494.9" r="1.8" fill="#883039"></circle><circle cx="363.1" cy="495.1" r="1.8" fill="#883039"></circle><circle cx="374.2" cy="495.4" r="1.8" fill="#883039"></circle><circle cx="385.2" cy="495.8" r="1.8" fill="#883039"></circle><circle cx="396.2" cy="497.2" r="1.8" fill="#883039"></circle><circle cx="407.3" cy="497.8" r="1.8" fill="#883039"></circle><circle cx="418.3" cy="498.1" r="1.8" fill="#883039"></circle><circle cx="429.3" cy="498.6" r="1.8" fill="#883039"></circle><circle cx="440.4" cy="498.8" r="1.8" fill="#883039"></circle><circle cx="451.4" cy="499.1" r="1.8" fill="#883039"></circle><circle cx="462.4" cy="499.4" r="1.8" fill="#883039"></circle><circle cx="473.4" cy="499.8" r="1.8" fill="#883039"></circle><circle cx="484.5" cy="499.6" r="1.8" fill="#883039"></circle><circle cx="495.5" cy="499.5" r="1.8" fill="#883039"></circle><circle cx="506.5" cy="499.6" r="1.8" fill="#883039"></circle><circle cx="517.6" cy="499.8" r="1.8" fill="#883039"></circle><circle cx="528.6" cy="499.4" r="1.8" fill="#883039"></circle><circle cx="539.6" cy="499.1" r="1.8" fill="#883039"></circle><circle cx="550.6" cy="499.6" r="1.8" fill="#883039"></circle><circle cx="561.7" cy="499.9" r="1.8" fill="#883039"></circle><circle cx="572.7" cy="499.7" r="1.8" fill="#883039"></circle><circle cx="583.7" cy="499.6" r="1.8" fill="#883039"></circle><circle cx="594.8" cy="499.3" r="1.8" fill="#883039"></circle><circle cx="605.8" cy="499.4" r="1.8" fill="#883039"></circle><circle cx="616.8" cy="499.5" r="1.8" fill="#883039"></circle><circle cx="627.8" cy="499.6" r="1.8" fill="#883039"></circle><circle cx="638.9" cy="499.7" r="1.8" fill="#883039"></circle><circle cx="649.9" cy="499.9" r="1.8" fill="#883039"></circle><circle cx="660.9" cy="499.8" r="1.8" fill="#883039"></circle><circle cx="672" cy="499.5" r="1.8" fill="#883039"></circle><circle cx="683" cy="499.4" r="1.8" fill="#883039"></circle><circle cx="694" cy="499.7" r="1.8" fill="#883039"></circle></g></g><g><path fill="none" stroke-linecap="butt" stroke-linejoin="round" stroke="#fff" stroke-width="2.5" d="M65.4 474.6L76.4 475.3L87.4 475.9L98.4 476.6L109.5 477.1L120.5 477.8L131.5 478.4L142.6 479.2L153.6 479.6L164.6 480.6L175.7 480.8L186.7 481.1L197.7 481.5L208.7 481.7L219.8 481.9L230.8 482.3L241.8 482.5L252.9 482.6L263.9 482.8L274.9 483.2L285.9 483.3L297 483.4L308 483.7L319 483.8L330.1 484L341.1 484.2L352.1 484.5L363.1 485L374.2 485.4L385.2 485.7L396.2 486.7L407.3 487.1L418.3 487.2L429.3 487.4L440.4 487.6L451.4 487.7L462.4 487.9L473.4 488L484.5 488.2L495.5 488.5L506.5 488.8L517.6 489L528.6 489.2L539.6 489.4L550.6 489.6L561.7 489.8L572.7 490L583.7 490.2L594.8 490.4L605.8 490.7L616.8 490.9L627.8 491.1L638.9 491.3L649.9 491.5L660.9 491.6L672 491.9L683 492.1L694 492.3"></path><polyline points="65.40,474.60 76.40,475.30 87.40,475.90 98.40,476.60 109.50,477.10 120.50,477.80 131.50,478.40 142.60,479.20 153.60,479.60 164.60,480.60 175.70,480.80 186.70,481.10 197.70,481.50 208.70,481.70 219.80,481.90 230.80,482.30 241.80,482.50 252.90,482.60 263.90,482.80 274.90,483.20 285.90,483.30 297.00,483.40 308.00,483.70 319.00,483.80 330.10,484.00 341.10,484.20 352.10,484.50 363.10,485.00 374.20,485.40 385.20,485.70 396.20,486.70 407.30,487.10 418.30,487.20 429.30,487.40 440.40,487.60 451.40,487.70 462.40,487.90 473.40,488.00 484.50,488.20 495.50,488.50 506.50,488.80 517.60,489.00 528.60,489.20 539.60,489.40 550.60,489.60 561.70,489.80 572.70,490.00 583.70,490.20 594.80,490.40 605.80,490.70 616.80,490.90 627.80,491.10 638.90,491.30 649.90,491.50 660.90,491.60 672.00,491.90 683.00,492.10 694.00,492.30" stroke-linejoin="round" stroke-width="1.5" stroke="#CF0A66" fill="none" stroke-linecap="butt"></polyline><g><circle cx="65.4" cy="474.6" r="1.8" fill="#CF0A66"></circle><circle cx="76.4" cy="475.3" r="1.8" fill="#CF0A66"></circle><circle cx="87.4" cy="475.9" r="1.8" fill="#CF0A66"></circle><circle cx="98.4" cy="476.6" r="1.8" fill="#CF0A66"></circle><circle cx="109.5" cy="477.1" r="1.8" fill="#CF0A66"></circle><circle cx="120.5" cy="477.8" r="1.8" fill="#CF0A66"></circle><circle cx="131.5" cy="478.4" r="1.8" fill="#CF0A66"></circle><circle cx="142.6" cy="479.2" r="1.8" fill="#CF0A66"></circle><circle cx="153.6" cy="479.6" r="1.8" fill="#CF0A66"></circle><circle cx="164.6" cy="480.6" r="1.8" fill="#CF0A66"></circle><circle cx="175.7" cy="480.8" r="1.8" fill="#CF0A66"></circle><circle cx="186.7" cy="481.1" r="1.8" fill="#CF0A66"></circle><circle cx="197.7" cy="481.5" r="1.8" fill="#CF0A66"></circle><circle cx="208.7" cy="481.7" r="1.8" fill="#CF0A66"></circle><circle cx="219.8" cy="481.9" r="1.8" fill="#CF0A66"></circle><circle cx="230.8" cy="482.3" r="1.8" fill="#CF0A66"></circle><circle cx="241.8" cy="482.5" r="1.8" fill="#CF0A66"></circle><circle cx="252.9" cy="482.6" r="1.8" fill="#CF0A66"></circle><circle cx="263.9" cy="482.8" r="1.8" fill="#CF0A66"></circle><circle cx="274.9" cy="483.2" r="1.8" fill="#CF0A66"></circle><circle cx="285.9" cy="483.3" r="1.8" fill="#CF0A66"></circle><circle cx="297" cy="483.4" r="1.8" fill="#CF0A66"></circle><circle cx="308" cy="483.7" r="1.8" fill="#CF0A66"></circle><circle cx="319" cy="483.8" r="1.8" fill="#CF0A66"></circle><circle cx="330.1" cy="484" r="1.8" fill="#CF0A66"></circle><circle cx="341.1" cy="484.2" r="1.8" fill="#CF0A66"></circle><circle cx="352.1" cy="484.5" r="1.8" fill="#CF0A66"></circle><circle cx="363.1" cy="485" r="1.8" fill="#CF0A66"></circle><circle cx="374.2" cy="485.4" r="1.8" fill="#CF0A66"></circle><circle cx="385.2" cy="485.7" r="1.8" fill="#CF0A66"></circle><circle cx="396.2" cy="486.7" r="1.8" fill="#CF0A66"></circle><circle cx="407.3" cy="487.1" r="1.8" fill="#CF0A66"></circle><circle cx="418.3" cy="487.2" r="1.8" fill="#CF0A66"></circle><circle cx="429.3" cy="487.4" r="1.8" fill="#CF0A66"></circle><circle cx="440.4" cy="487.6" r="1.8" fill="#CF0A66"></circle><circle cx="451.4" cy="487.7" r="1.8" fill="#CF0A66"></circle><circle cx="462.4" cy="487.9" r="1.8" fill="#CF0A66"></circle><circle cx="473.4" cy="488" r="1.8" fill="#CF0A66"></circle><circle cx="484.5" cy="488.2" r="1.8" fill="#CF0A66"></circle><circle cx="495.5" cy="488.5" r="1.8" fill="#CF0A66"></circle><circle cx="506.5" cy="488.8" r="1.8" fill="#CF0A66"></circle><circle cx="517.6" cy="489" r="1.8" fill="#CF0A66"></circle><circle cx="528.6" cy="489.2" r="1.8" fill="#CF0A66"></circle><circle cx="539.6" cy="489.4" r="1.8" fill="#CF0A66"></circle><circle cx="550.6" cy="489.6" r="1.8" fill="#CF0A66"></circle><circle cx="561.7" cy="489.8" r="1.8" fill="#CF0A66"></circle><circle cx="572.7" cy="490" r="1.8" fill="#CF0A66"></circle><circle cx="583.7" cy="490.2" r="1.8" fill="#CF0A66"></circle><circle cx="594.8" cy="490.4" r="1.8" fill="#CF0A66"></circle><circle cx="605.8" cy="490.7" r="1.8" fill="#CF0A66"></circle><circle cx="616.8" cy="490.9" r="1.8" fill="#CF0A66"></circle><circle cx="627.8" cy="491.1" r="1.8" fill="#CF0A66"></circle><circle cx="638.9" cy="491.3" r="1.8" fill="#CF0A66"></circle><circle cx="649.9" cy="491.5" r="1.8" fill="#CF0A66"></circle><circle cx="660.9" cy="491.6" r="1.8" fill="#CF0A66"></circle><circle cx="672" cy="491.9" r="1.8" fill="#CF0A66"></circle><circle cx="683" cy="492.1" r="1.8" fill="#CF0A66"></circle><circle cx="694" cy="492.3" r="1.8" fill="#CF0A66"></circle></g></g><g><path fill="none" stroke-linecap="butt" stroke-linejoin="round" stroke="#fff" stroke-width="2.5" d="M65.4 450.4L76.4 451.2L87.4 452.1L98.4 453.1L109.5 454.1L120.5 455.2L131.5 456.5L142.6 457.8L153.6 459L164.6 460.1L175.7 461.1L186.7 462L197.7 462.7L208.7 463.3L219.8 463.9L230.8 466L241.8 466.2L252.9 466.4L263.9 466.9L274.9 467.2L285.9 467.5L297 467.3L308 467L319 466.7L330.1 466.4L341.1 466.8L352.1 467.3L363.1 467.8L374.2 468.2L385.2 468.4L396.2 468.6L407.3 469.2L418.3 469.8L429.3 469.9L440.4 470.4L451.4 470.9L462.4 470.4L473.4 470.8L484.5 471.1L495.5 471.5L506.5 471.8L517.6 472.1L528.6 473.7L539.6 473.9L550.6 474.2L561.7 474.3L572.7 474.6L583.7 474.8L594.8 475L605.8 475.3L616.8 475.6L627.8 475.8L638.9 476.1L649.9 476.4L660.9 476.6L672 476.9L683 477.1L694 477.3"></path><polyline points="65.40,450.40 76.40,451.20 87.40,452.10 98.40,453.10 109.50,454.10 120.50,455.20 131.50,456.50 142.60,457.80 153.60,459.00 164.60,460.10 175.70,461.10 186.70,462.00 197.70,462.70 208.70,463.30 219.80,463.90 230.80,466.00 241.80,466.20 252.90,466.40 263.90,466.90 274.90,467.20 285.90,467.50 297.00,467.30 308.00,467.00 319.00,466.70 330.10,466.40 341.10,466.80 352.10,467.30 363.10,467.80 374.20,468.20 385.20,468.40 396.20,468.60 407.30,469.20 418.30,469.80 429.30,469.90 440.40,470.40 451.40,470.90 462.40,470.40 473.40,470.80 484.50,471.10 495.50,471.50 506.50,471.80 517.60,472.10 528.60,473.70 539.60,473.90 550.60,474.20 561.70,474.30 572.70,474.60 583.70,474.80 594.80,475.00 605.80,475.30 616.80,475.60 627.80,475.80 638.90,476.10 649.90,476.40 660.90,476.60 672.00,476.90 683.00,477.10 694.00,477.30" stroke-linejoin="round" stroke-width="1.5" stroke="#6D3E91" fill="none" stroke-linecap="butt"></polyline><g><circle cx="65.4" cy="450.4" r="1.8" fill="#6D3E91"></circle><circle cx="76.4" cy="451.2" r="1.8" fill="#6D3E91"></circle><circle cx="87.4" cy="452.1" r="1.8" fill="#6D3E91"></circle><circle cx="98.4" cy="453.1" r="1.8" fill="#6D3E91"></circle><circle cx="109.5" cy="454.1" r="1.8" fill="#6D3E91"></circle><circle cx="120.5" cy="455.2" r="1.8" fill="#6D3E91"></circle><circle cx="131.5" cy="456.5" r="1.8" fill="#6D3E91"></circle><circle cx="142.6" cy="457.8" r="1.8" fill="#6D3E91"></circle><circle cx="153.6" cy="459" r="1.8" fill="#6D3E91"></circle><circle cx="164.6" cy="460.1" r="1.8" fill="#6D3E91"></circle><circle cx="175.7" cy="461.1" r="1.8" fill="#6D3E91"></circle><circle cx="186.7" cy="462" r="1.8" fill="#6D3E91"></circle><circle cx="197.7" cy="462.7" r="1.8" fill="#6D3E91"></circle><circle cx="208.7" cy="463.3" r="1.8" fill="#6D3E91"></circle><circle cx="219.8" cy="463.9" r="1.8" fill="#6D3E91"></circle><circle cx="230.8" cy="466" r="1.8" fill="#6D3E91"></circle><circle cx="241.8" cy="466.2" r="1.8" fill="#6D3E91"></circle><circle cx="252.9" cy="466.4" r="1.8" fill="#6D3E91"></circle><circle cx="263.9" cy="466.9" r="1.8" fill="#6D3E91"></circle><circle cx="274.9" cy="467.2" r="1.8" fill="#6D3E91"></circle><circle cx="285.9" cy="467.5" r="1.8" fill="#6D3E91"></circle><circle cx="297" cy="467.3" r="1.8" fill="#6D3E91"></circle><circle cx="308" cy="467" r="1.8" fill="#6D3E91"></circle><circle cx="319" cy="466.7" r="1.8" fill="#6D3E91"></circle><circle cx="330.1" cy="466.4" r="1.8" fill="#6D3E91"></circle><circle cx="341.1" cy="466.8" r="1.8" fill="#6D3E91"></circle><circle cx="352.1" cy="467.3" r="1.8" fill="#6D3E91"></circle><circle cx="363.1" cy="467.8" r="1.8" fill="#6D3E91"></circle><circle cx="374.2" cy="468.2" r="1.8" fill="#6D3E91"></circle><circle cx="385.2" cy="468.4" r="1.8" fill="#6D3E91"></circle><circle cx="396.2" cy="468.6" r="1.8" fill="#6D3E91"></circle><circle cx="407.3" cy="469.2" r="1.8" fill="#6D3E91"></circle><circle cx="418.3" cy="469.8" r="1.8" fill="#6D3E91"></circle><circle cx="429.3" cy="469.9" r="1.8" fill="#6D3E91"></circle><circle cx="440.4" cy="470.4" r="1.8" fill="#6D3E91"></circle><circle cx="451.4" cy="470.9" r="1.8" fill="#6D3E91"></circle><circle cx="462.4" cy="470.4" r="1.8" fill="#6D3E91"></circle><circle cx="473.4" cy="470.8" r="1.8" fill="#6D3E91"></circle><circle cx="484.5" cy="471.1" r="1.8" fill="#6D3E91"></circle><circle cx="495.5" cy="471.5" r="1.8" fill="#6D3E91"></circle><circle cx="506.5" cy="471.8" r="1.8" fill="#6D3E91"></circle><circle cx="517.6" cy="472.1" r="1.8" fill="#6D3E91"></circle><circle cx="528.6" cy="473.7" r="1.8" fill="#6D3E91"></circle><circle cx="539.6" cy="473.9" r="1.8" fill="#6D3E91"></circle><circle cx="550.6" cy="474.2" r="1.8" fill="#6D3E91"></circle><circle cx="561.7" cy="474.3" r="1.8" fill="#6D3E91"></circle><circle cx="572.7" cy="474.6" r="1.8" fill="#6D3E91"></circle><circle cx="583.7" cy="474.8" r="1.8" fill="#6D3E91"></circle><circle cx="594.8" cy="475" r="1.8" fill="#6D3E91"></circle><circle cx="605.8" cy="475.3" r="1.8" fill="#6D3E91"></circle><circle cx="616.8" cy="475.6" r="1.8" fill="#6D3E91"></circle><circle cx="627.8" cy="475.8" r="1.8" fill="#6D3E91"></circle><circle cx="638.9" cy="476.1" r="1.8" fill="#6D3E91"></circle><circle cx="649.9" cy="476.4" r="1.8" fill="#6D3E91"></circle><circle cx="660.9" cy="476.6" r="1.8" fill="#6D3E91"></circle><circle cx="672" cy="476.9" r="1.8" fill="#6D3E91"></circle><circle cx="683" cy="477.1" r="1.8" fill="#6D3E91"></circle><circle cx="694" cy="477.3" r="1.8" fill="#6D3E91"></circle></g></g><g><path fill="none" stroke-linecap="butt" stroke-linejoin="round" stroke="#fff" stroke-width="2.5" d="M65.4 219.1L76.4 225.5L87.4 230.9L98.4 235.9L109.5 241L120.5 244.3L131.5 247.5L142.6 250.1L153.6 253L164.6 256.2L175.7 259.5L186.7 262.5L197.7 265.6L208.7 268.6L219.8 271L230.8 273.4L241.8 275.9L252.9 279.5L263.9 282L274.9 284.5L285.9 287L297 287.7L308 290L319 292.3L330.1 294.5L341.1 296.8L352.1 301L363.1 303.2L374.2 305.3L385.2 307.4L396.2 309.5L407.3 312.3L418.3 315.6L429.3 318.6L440.4 321.3L451.4 325.3L462.4 328.3L473.4 330.9L484.5 333.5L495.5 335.4L506.5 337.1L517.6 339.3L528.6 341L539.6 342.7L550.6 344.5L561.7 346.6L572.7 348.6L583.7 351.3L594.8 353.8L605.8 356.3L616.8 358.7L627.8 360.7L638.9 361.8L649.9 362.8L660.9 363.8L672 364.7L683 365.6L694 366.6"></path><polyline points="65.40,219.10 76.40,225.50 87.40,230.90 98.40,235.90 109.50,241.00 120.50,244.30 131.50,247.50 142.60,250.10 153.60,253.00 164.60,256.20 175.70,259.50 186.70,262.50 197.70,265.60 208.70,268.60 219.80,271.00 230.80,273.40 241.80,275.90 252.90,279.50 263.90,282.00 274.90,284.50 285.90,287.00 297.00,287.70 308.00,290.00 319.00,292.30 330.10,294.50 341.10,296.80 352.10,301.00 363.10,303.20 374.20,305.30 385.20,307.40 396.20,309.50 407.30,312.30 418.30,315.60 429.30,318.60 440.40,321.30 451.40,325.30 462.40,328.30 473.40,330.90 484.50,333.50 495.50,335.40 506.50,337.10 517.60,339.30 528.60,341.00 539.60,342.70 550.60,344.50 561.70,346.60 572.70,348.60 583.70,351.30 594.80,353.80 605.80,356.30 616.80,358.70 627.80,360.70 638.90,361.80 649.90,362.80 660.90,363.80 672.00,364.70 683.00,365.60 694.00,366.60" stroke-linejoin="round" stroke-width="1.5" stroke="#00847E" fill="none" stroke-linecap="butt"></polyline><g><circle cx="65.4" cy="219.1" r="1.8" fill="#00847E"></circle><circle cx="76.4" cy="225.5" r="1.8" fill="#00847E"></circle><circle cx="87.4" cy="230.9" r="1.8" fill="#00847E"></circle><circle cx="98.4" cy="235.9" r="1.8" fill="#00847E"></circle><circle cx="109.5" cy="241" r="1.8" fill="#00847E"></circle><circle cx="120.5" cy="244.3" r="1.8" fill="#00847E"></circle><circle cx="131.5" cy="247.5" r="1.8" fill="#00847E"></circle><circle cx="142.6" cy="250.1" r="1.8" fill="#00847E"></circle><circle cx="153.6" cy="253" r="1.8" fill="#00847E"></circle><circle cx="164.6" cy="256.2" r="1.8" fill="#00847E"></circle><circle cx="175.7" cy="259.5" r="1.8" fill="#00847E"></circle><circle cx="186.7" cy="262.5" r="1.8" fill="#00847E"></circle><circle cx="197.7" cy="265.6" r="1.8" fill="#00847E"></circle><circle cx="208.7" cy="268.6" r="1.8" fill="#00847E"></circle><circle cx="219.8" cy="271" r="1.8" fill="#00847E"></circle><circle cx="230.8" cy="273.4" r="1.8" fill="#00847E"></circle><circle cx="241.8" cy="275.9" r="1.8" fill="#00847E"></circle><circle cx="252.9" cy="279.5" r="1.8" fill="#00847E"></circle><circle cx="263.9" cy="282" r="1.8" fill="#00847E"></circle><circle cx="274.9" cy="284.5" r="1.8" fill="#00847E"></circle><circle cx="285.9" cy="287" r="1.8" fill="#00847E"></circle><circle cx="297" cy="287.7" r="1.8" fill="#00847E"></circle><circle cx="308" cy="290" r="1.8" fill="#00847E"></circle><circle cx="319" cy="292.3" r="1.8" fill="#00847E"></circle><circle cx="330.1" cy="294.5" r="1.8" fill="#00847E"></circle><circle cx="341.1" cy="296.8" r="1.8" fill="#00847E"></circle><circle cx="352.1" cy="301" r="1.8" fill="#00847E"></circle><circle cx="363.1" cy="303.2" r="1.8" fill="#00847E"></circle><circle cx="374.2" cy="305.3" r="1.8" fill="#00847E"></circle><circle cx="385.2" cy="307.4" r="1.8" fill="#00847E"></circle><circle cx="396.2" cy="309.5" r="1.8" fill="#00847E"></circle><circle cx="407.3" cy="312.3" r="1.8" fill="#00847E"></circle><circle cx="418.3" cy="315.6" r="1.8" fill="#00847E"></circle><circle cx="429.3" cy="318.6" r="1.8" fill="#00847E"></circle><circle cx="440.4" cy="321.3" r="1.8" fill="#00847E"></circle><circle cx="451.4" cy="325.3" r="1.8" fill="#00847E"></circle><circle cx="462.4" cy="328.3" r="1.8" fill="#00847E"></circle><circle cx="473.4" cy="330.9" r="1.8" fill="#00847E"></circle><circle cx="484.5" cy="333.5" r="1.8" fill="#00847E"></circle><circle cx="495.5" cy="335.4" r="1.8" fill="#00847E"></circle><circle cx="506.5" cy="337.1" r="1.8" fill="#00847E"></circle><circle cx="517.6" cy="339.3" r="1.8" fill="#00847E"></circle><circle cx="528.6" cy="341" r="1.8" fill="#00847E"></circle><circle cx="539.6" cy="342.7" r="1.8" fill="#00847E"></circle><circle cx="550.6" cy="344.5" r="1.8" fill="#00847E"></circle><circle cx="561.7" cy="346.6" r="1.8" fill="#00847E"></circle><circle cx="572.7" cy="348.6" r="1.8" fill="#00847E"></circle><circle cx="583.7" cy="351.3" r="1.8" fill="#00847E"></circle><circle cx="594.8" cy="353.8" r="1.8" fill="#00847E"></circle><circle cx="605.8" cy="356.3" r="1.8" fill="#00847E"></circle><circle cx="616.8" cy="358.7" r="1.8" fill="#00847E"></circle><circle cx="627.8" cy="360.7" r="1.8" fill="#00847E"></circle><circle cx="638.9" cy="361.8" r="1.8" fill="#00847E"></circle><circle cx="649.9" cy="362.8" r="1.8" fill="#00847E"></circle><circle cx="660.9" cy="363.8" r="1.8" fill="#00847E"></circle><circle cx="672" cy="364.7" r="1.8" fill="#00847E"></circle><circle cx="683" cy="365.6" r="1.8" fill="#00847E"></circle><circle cx="694" cy="366.6" r="1.8" fill="#00847E"></circle></g></g><g><path fill="none" stroke-linecap="butt" stroke-linejoin="round" stroke="#fff" stroke-width="2.5" d="M65.4 345.1L76.4 348.1L87.4 351.1L98.4 354.1L109.5 356.9L120.5 360.1L131.5 363L142.6 365.1L153.6 368L164.6 371.6L175.7 374.2L186.7 376.9L197.7 379.2L208.7 381.7L219.8 384.2L230.8 386.7L241.8 389.1L252.9 391.1L263.9 393.2L274.9 395.1L285.9 397.3L297 399.1L308 401.1L319 402.5L330.1 403.9L341.1 406L352.1 407.8L363.1 409.5L374.2 411.3L385.2 413.4L396.2 415.4L407.3 416.2L418.3 418.2L429.3 419.3L440.4 420.8L451.4 422.1L462.4 423.1L473.4 424.2L484.5 425.4L495.5 426.7L506.5 427.9L517.6 429.3L528.6 430.8L539.6 432.7L550.6 433.7L561.7 434.8L572.7 436L583.7 437.3L594.8 438.4L605.8 439.4L616.8 440.8L627.8 441.8L638.9 442.9L649.9 443.9L660.9 445.2L672 446.1L683 446.3L694 447.4"></path><polyline points="65.40,345.10 76.40,348.10 87.40,351.10 98.40,354.10 109.50,356.90 120.50,360.10 131.50,363.00 142.60,365.10 153.60,368.00 164.60,371.60 175.70,374.20 186.70,376.90 197.70,379.20 208.70,381.70 219.80,384.20 230.80,386.70 241.80,389.10 252.90,391.10 263.90,393.20 274.90,395.10 285.90,397.30 297.00,399.10 308.00,401.10 319.00,402.50 330.10,403.90 341.10,406.00 352.10,407.80 363.10,409.50 374.20,411.30 385.20,413.40 396.20,415.40 407.30,416.20 418.30,418.20 429.30,419.30 440.40,420.80 451.40,422.10 462.40,423.10 473.40,424.20 484.50,425.40 495.50,426.70 506.50,427.90 517.60,429.30 528.60,430.80 539.60,432.70 550.60,433.70 561.70,434.80 572.70,436.00 583.70,437.30 594.80,438.40 605.80,439.40 616.80,440.80 627.80,441.80 638.90,442.90 649.90,443.90 660.90,445.20 672.00,446.10 683.00,446.30 694.00,447.40" stroke-linejoin="round" stroke-width="1.5" stroke="#ca2628" fill="none" stroke-linecap="butt"></polyline><g><circle cx="65.4" cy="345.1" r="1.8" fill="#ca2628"></circle><circle cx="76.4" cy="348.1" r="1.8" fill="#ca2628"></circle><circle cx="87.4" cy="351.1" r="1.8" fill="#ca2628"></circle><circle cx="98.4" cy="354.1" r="1.8" fill="#ca2628"></circle><circle cx="109.5" cy="356.9" r="1.8" fill="#ca2628"></circle><circle cx="120.5" cy="360.1" r="1.8" fill="#ca2628"></circle><circle cx="131.5" cy="363" r="1.8" fill="#ca2628"></circle><circle cx="142.6" cy="365.1" r="1.8" fill="#ca2628"></circle><circle cx="153.6" cy="368" r="1.8" fill="#ca2628"></circle><circle cx="164.6" cy="371.6" r="1.8" fill="#ca2628"></circle><circle cx="175.7" cy="374.2" r="1.8" fill="#ca2628"></circle><circle cx="186.7" cy="376.9" r="1.8" fill="#ca2628"></circle><circle cx="197.7" cy="379.2" r="1.8" fill="#ca2628"></circle><circle cx="208.7" cy="381.7" r="1.8" fill="#ca2628"></circle><circle cx="219.8" cy="384.2" r="1.8" fill="#ca2628"></circle><circle cx="230.8" cy="386.7" r="1.8" fill="#ca2628"></circle><circle cx="241.8" cy="389.1" r="1.8" fill="#ca2628"></circle><circle cx="252.9" cy="391.1" r="1.8" fill="#ca2628"></circle><circle cx="263.9" cy="393.2" r="1.8" fill="#ca2628"></circle><circle cx="274.9" cy="395.1" r="1.8" fill="#ca2628"></circle><circle cx="285.9" cy="397.3" r="1.8" fill="#ca2628"></circle><circle cx="297" cy="399.1" r="1.8" fill="#ca2628"></circle><circle cx="308" cy="401.1" r="1.8" fill="#ca2628"></circle><circle cx="319" cy="402.5" r="1.8" fill="#ca2628"></circle><circle cx="330.1" cy="403.9" r="1.8" fill="#ca2628"></circle><circle cx="341.1" cy="406" r="1.8" fill="#ca2628"></circle><circle cx="352.1" cy="407.8" r="1.8" fill="#ca2628"></circle><circle cx="363.1" cy="409.5" r="1.8" fill="#ca2628"></circle><circle cx="374.2" cy="411.3" r="1.8" fill="#ca2628"></circle><circle cx="385.2" cy="413.4" r="1.8" fill="#ca2628"></circle><circle cx="396.2" cy="415.4" r="1.8" fill="#ca2628"></circle><circle cx="407.3" cy="416.2" r="1.8" fill="#ca2628"></circle><circle cx="418.3" cy="418.2" r="1.8" fill="#ca2628"></circle><circle cx="429.3" cy="419.3" r="1.8" fill="#ca2628"></circle><circle cx="440.4" cy="420.8" r="1.8" fill="#ca2628"></circle><circle cx="451.4" cy="422.1" r="1.8" fill="#ca2628"></circle><circle cx="462.4" cy="423.1" r="1.8" fill="#ca2628"></circle><circle cx="473.4" cy="424.2" r="1.8" fill="#ca2628"></circle><circle cx="484.5" cy="425.4" r="1.8" fill="#ca2628"></circle><circle cx="495.5" cy="426.7" r="1.8" fill="#ca2628"></circle><circle cx="506.5" cy="427.9" r="1.8" fill="#ca2628"></circle><circle cx="517.6" cy="429.3" r="1.8" fill="#ca2628"></circle><circle cx="528.6" cy="430.8" r="1.8" fill="#ca2628"></circle><circle cx="539.6" cy="432.7" r="1.8" fill="#ca2628"></circle><circle cx="550.6" cy="433.7" r="1.8" fill="#ca2628"></circle><circle cx="561.7" cy="434.8" r="1.8" fill="#ca2628"></circle><circle cx="572.7" cy="436" r="1.8" fill="#ca2628"></circle><circle cx="583.7" cy="437.3" r="1.8" fill="#ca2628"></circle><circle cx="594.8" cy="438.4" r="1.8" fill="#ca2628"></circle><circle cx="605.8" cy="439.4" r="1.8" fill="#ca2628"></circle><circle cx="616.8" cy="440.8" r="1.8" fill="#ca2628"></circle><circle cx="627.8" cy="441.8" r="1.8" fill="#ca2628"></circle><circle cx="638.9" cy="442.9" r="1.8" fill="#ca2628"></circle><circle cx="649.9" cy="443.9" r="1.8" fill="#ca2628"></circle><circle cx="660.9" cy="445.2" r="1.8" fill="#ca2628"></circle><circle cx="672" cy="446.1" r="1.8" fill="#ca2628"></circle><circle cx="683" cy="446.3" r="1.8" fill="#ca2628"></circle><circle cx="694" cy="447.4" r="1.8" fill="#ca2628"></circle></g></g><g><path fill="none" stroke-linecap="butt" stroke-linejoin="round" stroke="#fff" stroke-width="2.5" d="M65.4 158.4L76.4 165.3L87.4 172.4L98.4 179.1L109.5 185.4L120.5 191.7L131.5 198L142.6 203.5L153.6 208.2L164.6 213L175.7 216.1L186.7 220.2L197.7 224.6L208.7 228.4L219.8 232.3L230.8 235.3L241.8 238.2L252.9 242L263.9 245.1L274.9 248.3L285.9 252.9L297 257.1L308 261.6L319 265.7L330.1 269.9L341.1 274.9L352.1 280.4L363.1 286L374.2 291.1L385.2 296.4L396.2 300.9L407.3 305.4L418.3 309.5L429.3 313.3L440.4 317.2L451.4 319.4L462.4 322.3L473.4 324.9L484.5 327.6L495.5 331.7L506.5 335.5L517.6 337.2L528.6 339.1L539.6 340.2L550.6 340.9L561.7 341.9L572.7 342.5L583.7 343.8L594.8 345.3L605.8 345.9L616.8 347.3L627.8 348.1L638.9 348.7L649.9 351.1L660.9 352.5L672 354L683 354L694 355.4"></path><polyline points="65.40,158.40 76.40,165.30 87.40,172.40 98.40,179.10 109.50,185.40 120.50,191.70 131.50,198.00 142.60,203.50 153.60,208.20 164.60,213.00 175.70,216.10 186.70,220.20 197.70,224.60 208.70,228.40 219.80,232.30 230.80,235.30 241.80,238.20 252.90,242.00 263.90,245.10 274.90,248.30 285.90,252.90 297.00,257.10 308.00,261.60 319.00,265.70 330.10,269.90 341.10,274.90 352.10,280.40 363.10,286.00 374.20,291.10 385.20,296.40 396.20,300.90 407.30,305.40 418.30,309.50 429.30,313.30 440.40,317.20 451.40,319.40 462.40,322.30 473.40,324.90 484.50,327.60 495.50,331.70 506.50,335.50 517.60,337.20 528.60,339.10 539.60,340.20 550.60,340.90 561.70,341.90 572.70,342.50 583.70,343.80 594.80,345.30 605.80,345.90 616.80,347.30 627.80,348.10 638.90,348.70 649.90,351.10 660.90,352.50 672.00,354.00 683.00,354.00 694.00,355.40" stroke-linejoin="round" stroke-width="1.5" stroke="#B13507" fill="none" stroke-linecap="butt"></polyline><g><circle cx="65.4" cy="158.4" r="1.8" fill="#B13507"></circle><circle cx="76.4" cy="165.3" r="1.8" fill="#B13507"></circle><circle cx="87.4" cy="172.4" r="1.8" fill="#B13507"></circle><circle cx="98.4" cy="179.1" r="1.8" fill="#B13507"></circle><circle cx="109.5" cy="185.4" r="1.8" fill="#B13507"></circle><circle cx="120.5" cy="191.7" r="1.8" fill="#B13507"></circle><circle cx="131.5" cy="198" r="1.8" fill="#B13507"></circle><circle cx="142.6" cy="203.5" r="1.8" fill="#B13507"></circle><circle cx="153.6" cy="208.2" r="1.8" fill="#B13507"></circle><circle cx="164.6" cy="213" r="1.8" fill="#B13507"></circle><circle cx="175.7" cy="216.1" r="1.8" fill="#B13507"></circle><circle cx="186.7" cy="220.2" r="1.8" fill="#B13507"></circle><circle cx="197.7" cy="224.6" r="1.8" fill="#B13507"></circle><circle cx="208.7" cy="228.4" r="1.8" fill="#B13507"></circle><circle cx="219.8" cy="232.3" r="1.8" fill="#B13507"></circle><circle cx="230.8" cy="235.3" r="1.8" fill="#B13507"></circle><circle cx="241.8" cy="238.2" r="1.8" fill="#B13507"></circle><circle cx="252.9" cy="242" r="1.8" fill="#B13507"></circle><circle cx="263.9" cy="245.1" r="1.8" fill="#B13507"></circle><circle cx="274.9" cy="248.3" r="1.8" fill="#B13507"></circle><circle cx="285.9" cy="252.9" r="1.8" fill="#B13507"></circle><circle cx="297" cy="257.1" r="1.8" fill="#B13507"></circle><circle cx="308" cy="261.6" r="1.8" fill="#B13507"></circle><circle cx="319" cy="265.7" r="1.8" fill="#B13507"></circle><circle cx="330.1" cy="269.9" r="1.8" fill="#B13507"></circle><circle cx="341.1" cy="274.9" r="1.8" fill="#B13507"></circle><circle cx="352.1" cy="280.4" r="1.8" fill="#B13507"></circle><circle cx="363.1" cy="286" r="1.8" fill="#B13507"></circle><circle cx="374.2" cy="291.1" r="1.8" fill="#B13507"></circle><circle cx="385.2" cy="296.4" r="1.8" fill="#B13507"></circle><circle cx="396.2" cy="300.9" r="1.8" fill="#B13507"></circle><circle cx="407.3" cy="305.4" r="1.8" fill="#B13507"></circle><circle cx="418.3" cy="309.5" r="1.8" fill="#B13507"></circle><circle cx="429.3" cy="313.3" r="1.8" fill="#B13507"></circle><circle cx="440.4" cy="317.2" r="1.8" fill="#B13507"></circle><circle cx="451.4" cy="319.4" r="1.8" fill="#B13507"></circle><circle cx="462.4" cy="322.3" r="1.8" fill="#B13507"></circle><circle cx="473.4" cy="324.9" r="1.8" fill="#B13507"></circle><circle cx="484.5" cy="327.6" r="1.8" fill="#B13507"></circle><circle cx="495.5" cy="331.7" r="1.8" fill="#B13507"></circle><circle cx="506.5" cy="335.5" r="1.8" fill="#B13507"></circle><circle cx="517.6" cy="337.2" r="1.8" fill="#B13507"></circle><circle cx="528.6" cy="339.1" r="1.8" fill="#B13507"></circle><circle cx="539.6" cy="340.2" r="1.8" fill="#B13507"></circle><circle cx="550.6" cy="340.9" r="1.8" fill="#B13507"></circle><circle cx="561.7" cy="341.9" r="1.8" fill="#B13507"></circle><circle cx="572.7" cy="342.5" r="1.8" fill="#B13507"></circle><circle cx="583.7" cy="343.8" r="1.8" fill="#B13507"></circle><circle cx="594.8" cy="345.3" r="1.8" fill="#B13507"></circle><circle cx="605.8" cy="345.9" r="1.8" fill="#B13507"></circle><circle cx="616.8" cy="347.3" r="1.8" fill="#B13507"></circle><circle cx="627.8" cy="348.1" r="1.8" fill="#B13507"></circle><circle cx="638.9" cy="348.7" r="1.8" fill="#B13507"></circle><circle cx="649.9" cy="351.1" r="1.8" fill="#B13507"></circle><circle cx="660.9" cy="352.5" r="1.8" fill="#B13507"></circle><circle cx="672" cy="354" r="1.8" fill="#B13507"></circle><circle cx="683" cy="354" r="1.8" fill="#B13507"></circle><circle cx="694" cy="355.4" r="1.8" fill="#B13507"></circle></g></g><g><path fill="none" stroke-linecap="butt" stroke-linejoin="round" stroke="#fff" stroke-width="2.5" d="M65.4 76.6L76.4 87.1L87.4 96.5L98.4 106.5L109.5 115.7L120.5 126.4L131.5 135.4L142.6 144.5L153.6 151.7L164.6 161.9L175.7 170.3L186.7 180.7L197.7 188.2L208.7 198.3L219.8 207L230.8 215.2L241.8 224.7L252.9 232.9L263.9 241.1L274.9 248L285.9 257.4L297 264.4L308 271.1L319 277.1L330.1 282.6L341.1 287.2L352.1 293.3L363.1 298.6L374.2 303.9L385.2 312.5L396.2 319.7L407.3 324L418.3 331.2L429.3 335.1L440.4 338.5L451.4 342.9L462.4 346.7L473.4 350.6L484.5 354L495.5 357.6L506.5 360.9L517.6 364.4L528.6 367.2L539.6 370.5L550.6 373.1L561.7 376.6L572.7 379.8L583.7 382.7L594.8 385.7L605.8 388.9L616.8 396.7L627.8 399L638.9 401.8L649.9 404.8L660.9 407.8L672 410.6L683 413.4L694 416.1"></path><polyline points="65.40,76.60 76.40,87.10 87.40,96.50 98.40,106.50 109.50,115.70 120.50,126.40 131.50,135.40 142.60,144.50 153.60,151.70 164.60,161.90 175.70,170.30 186.70,180.70 197.70,188.20 208.70,198.30 219.80,207.00 230.80,215.20 241.80,224.70 252.90,232.90 263.90,241.10 274.90,248.00 285.90,257.40 297.00,264.40 308.00,271.10 319.00,277.10 330.10,282.60 341.10,287.20 352.10,293.30 363.10,298.60 374.20,303.90 385.20,312.50 396.20,319.70 407.30,324.00 418.30,331.20 429.30,335.10 440.40,338.50 451.40,342.90 462.40,346.70 473.40,350.60 484.50,354.00 495.50,357.60 506.50,360.90 517.60,364.40 528.60,367.20 539.60,370.50 550.60,373.10 561.70,376.60 572.70,379.80 583.70,382.70 594.80,385.70 605.80,388.90 616.80,396.70 627.80,399.00 638.90,401.80 649.90,404.80 660.90,407.80 672.00,410.60 683.00,413.40 694.00,416.10" stroke-linejoin="round" stroke-width="1.5" stroke="#3C4E66" fill="none" stroke-linecap="butt"></polyline><g><circle cx="65.4" cy="76.6" r="1.8" fill="#3C4E66"></circle><circle cx="76.4" cy="87.1" r="1.8" fill="#3C4E66"></circle><circle cx="87.4" cy="96.5" r="1.8" fill="#3C4E66"></circle><circle cx="98.4" cy="106.5" r="1.8" fill="#3C4E66"></circle><circle cx="109.5" cy="115.7" r="1.8" fill="#3C4E66"></circle><circle cx="120.5" cy="126.4" r="1.8" fill="#3C4E66"></circle><circle cx="131.5" cy="135.4" r="1.8" fill="#3C4E66"></circle><circle cx="142.6" cy="144.5" r="1.8" fill="#3C4E66"></circle><circle cx="153.6" cy="151.7" r="1.8" fill="#3C4E66"></circle><circle cx="164.6" cy="161.9" r="1.8" fill="#3C4E66"></circle><circle cx="175.7" cy="170.3" r="1.8" fill="#3C4E66"></circle><circle cx="186.7" cy="180.7" r="1.8" fill="#3C4E66"></circle><circle cx="197.7" cy="188.2" r="1.8" fill="#3C4E66"></circle><circle cx="208.7" cy="198.3" r="1.8" fill="#3C4E66"></circle><circle cx="219.8" cy="207" r="1.8" fill="#3C4E66"></circle><circle cx="230.8" cy="215.2" r="1.8" fill="#3C4E66"></circle><circle cx="241.8" cy="224.7" r="1.8" fill="#3C4E66"></circle><circle cx="252.9" cy="232.9" r="1.8" fill="#3C4E66"></circle><circle cx="263.9" cy="241.1" r="1.8" fill="#3C4E66"></circle><circle cx="274.9" cy="248" r="1.8" fill="#3C4E66"></circle><circle cx="285.9" cy="257.4" r="1.8" fill="#3C4E66"></circle><circle cx="297" cy="264.4" r="1.8" fill="#3C4E66"></circle><circle cx="308" cy="271.1" r="1.8" fill="#3C4E66"></circle><circle cx="319" cy="277.1" r="1.8" fill="#3C4E66"></circle><circle cx="330.1" cy="282.6" r="1.8" fill="#3C4E66"></circle><circle cx="341.1" cy="287.2" r="1.8" fill="#3C4E66"></circle><circle cx="352.1" cy="293.3" r="1.8" fill="#3C4E66"></circle><circle cx="363.1" cy="298.6" r="1.8" fill="#3C4E66"></circle><circle cx="374.2" cy="303.9" r="1.8" fill="#3C4E66"></circle><circle cx="385.2" cy="312.5" r="1.8" fill="#3C4E66"></circle><circle cx="396.2" cy="319.7" r="1.8" fill="#3C4E66"></circle><circle cx="407.3" cy="324" r="1.8" fill="#3C4E66"></circle><circle cx="418.3" cy="331.2" r="1.8" fill="#3C4E66"></circle><circle cx="429.3" cy="335.1" r="1.8" fill="#3C4E66"></circle><circle cx="440.4" cy="338.5" r="1.8" fill="#3C4E66"></circle><circle cx="451.4" cy="342.9" r="1.8" fill="#3C4E66"></circle><circle cx="462.4" cy="346.7" r="1.8" fill="#3C4E66"></circle><circle cx="473.4" cy="350.6" r="1.8" fill="#3C4E66"></circle><circle cx="484.5" cy="354" r="1.8" fill="#3C4E66"></circle><circle cx="495.5" cy="357.6" r="1.8" fill="#3C4E66"></circle><circle cx="506.5" cy="360.9" r="1.8" fill="#3C4E66"></circle><circle cx="517.6" cy="364.4" r="1.8" fill="#3C4E66"></circle><circle cx="528.6" cy="367.2" r="1.8" fill="#3C4E66"></circle><circle cx="539.6" cy="370.5" r="1.8" fill="#3C4E66"></circle><circle cx="550.6" cy="373.1" r="1.8" fill="#3C4E66"></circle><circle cx="561.7" cy="376.6" r="1.8" fill="#3C4E66"></circle><circle cx="572.7" cy="379.8" r="1.8" fill="#3C4E66"></circle><circle cx="583.7" cy="382.7" r="1.8" fill="#3C4E66"></circle><circle cx="594.8" cy="385.7" r="1.8" fill="#3C4E66"></circle><circle cx="605.8" cy="388.9" r="1.8" fill="#3C4E66"></circle><circle cx="616.8" cy="396.7" r="1.8" fill="#3C4E66"></circle><circle cx="627.8" cy="399" r="1.8" fill="#3C4E66"></circle><circle cx="638.9" cy="401.8" r="1.8" fill="#3C4E66"></circle><circle cx="649.9" cy="404.8" r="1.8" fill="#3C4E66"></circle><circle cx="660.9" cy="407.8" r="1.8" fill="#3C4E66"></circle><circle cx="672" cy="410.6" r="1.8" fill="#3C4E66"></circle><circle cx="683" cy="413.4" r="1.8" fill="#3C4E66"></circle><circle cx="694" cy="416.1" r="1.8" fill="#3C4E66"></circle></g></g></g></g></g><g class="SourcesFooter" style="fill:#777"><g style="fill:#777"><text font-size="12.60" x="15.0" y="582.5"><tspan x="15" y="582.48">Source: Food and Agriculture Organization of the United Nations</tspan></text></g><text font-size="12.60" x="618.0" y="582.5"><tspan x="618.028" y="582.48"><a target='_blank' style='fill: #777;' href='https://ourworldindata.org/land-use'>OurWorldInData.org/land-use</a>  <a style="fill: #777;" class="cclogo" href="http://creativecommons.org/licenses/by/4.0/deed.en_US" target="_blank">CC BY</a></tspan></text></g></svg>