<?xml version="1.0" encoding="UTF-8" standalone="no"?>
<svg
   xmlns:dc="http://purl.org/dc/elements/1.1/"
   xmlns:cc="http://creativecommons.org/ns#"
   xmlns:rdf="http://www.w3.org/1999/02/22-rdf-syntax-ns#"
   xmlns:svg="http://www.w3.org/2000/svg"
   xmlns="http://www.w3.org/2000/svg"
   xmlns:sodipodi="http://sodipodi.sourceforge.net/DTD/sodipodi-0.dtd"
   xmlns:inkscape="http://www.inkscape.org/namespaces/inkscape"
   inkscape:version="1.0 (4035a4f, 2020-05-01)"
   sodipodi:docname="iex-logo-and-name.svg"
   id="svg8"
   version="1.1"
   viewBox="0 0 110.1438 10.902073"
   height="41.204685"
   width="416.29153">
  <defs
     id="defs2">
    <style
       id="style833">.cls-1{fill:url(#linear-gradient);}.cls-2{fill:url(#linear-gradient-2);}.cls-3{fill:url(#linear-gradient-3);}.cls-4{fill:url(#linear-gradient-4);}.cls-5{font-size:22.88px;fill:#d64b3f;font-family:AllRoundGothic-Demi, All Round Gothic;font-weight:300;letter-spacing:0.01em;}.cls-6{letter-spacing:0em;}.cls-7{letter-spacing:0.01em;}.cls-8{letter-spacing:-0.02em;}</style>
    <style
       id="style945">.cls-1{fill:url(#linear-gradient);}.cls-2{fill:url(#linear-gradient-2);}.cls-3{fill:url(#linear-gradient-3);}.cls-4{fill:url(#linear-gradient-4);}.cls-5{fill:#d64b3f;}</style>
    <style
       id="style833-2">.cls-1{fill:url(#linear-gradient);}.cls-2{fill:url(#linear-gradient-2);}.cls-3{fill:url(#linear-gradient-3);}.cls-4{fill:url(#linear-gradient-4);}.cls-5{font-size:22.88px;fill:#d64b3f;font-family:AllRoundGothic-Demi, All Round Gothic;font-weight:300;letter-spacing:0.01em;}.cls-6{letter-spacing:0em;}.cls-7{letter-spacing:0.01em;}.cls-8{letter-spacing:-0.02em;}</style>
    <style
       id="style945-0">.cls-1{fill:url(#linear-gradient);}.cls-2{fill:url(#linear-gradient-2);}.cls-3{fill:url(#linear-gradient-3);}.cls-4{fill:url(#linear-gradient-4);}.cls-5{fill:#d64b3f;}</style>
    <style
       id="style833-22">.cls-1{fill:url(#linear-gradient);}.cls-2{fill:url(#linear-gradient-2);}.cls-3{fill:url(#linear-gradient-3);}.cls-4{fill:url(#linear-gradient-4);}.cls-5{font-size:22.88px;fill:#d64b3f;font-family:AllRoundGothic-Demi, All Round Gothic;font-weight:300;letter-spacing:0.01em;}.cls-6{letter-spacing:0em;}.cls-7{letter-spacing:0.01em;}.cls-8{letter-spacing:-0.02em;}</style>
    <style
       id="style945-1">.cls-1{fill:url(#linear-gradient);}.cls-2{fill:url(#linear-gradient-2);}.cls-3{fill:url(#linear-gradient-3);}.cls-4{fill:url(#linear-gradient-4);}.cls-5{fill:#d64b3f;}</style>
    <style
       id="style833-3">.cls-1{fill:url(#linear-gradient);}.cls-2{fill:url(#linear-gradient-2);}.cls-3{fill:url(#linear-gradient-3);}.cls-4{fill:url(#linear-gradient-4);}.cls-5{font-size:22.88px;fill:#d64b3f;font-family:AllRoundGothic-Demi, All Round Gothic;font-weight:300;letter-spacing:0.01em;}.cls-6{letter-spacing:0em;}.cls-7{letter-spacing:0.01em;}.cls-8{letter-spacing:-0.02em;}</style>
    <style
       id="style945-9">.cls-1{fill:url(#linear-gradient);}.cls-2{fill:url(#linear-gradient-2);}.cls-3{fill:url(#linear-gradient-3);}.cls-4{fill:url(#linear-gradient-4);}.cls-5{fill:#d64b3f;}</style>
  </defs>
  <sodipodi:namedview
     inkscape:snap-nodes="false"
     units="px"
     inkscape:window-maximized="0"
     inkscape:window-y="33"
     inkscape:window-x="15"
     inkscape:window-height="799"
     inkscape:window-width="1440"
     fit-margin-bottom="0"
     fit-margin-right="0"
     fit-margin-left="0"
     fit-margin-top="0"
     showgrid="false"
     inkscape:document-rotation="0"
     inkscape:current-layer="layer1"
     inkscape:document-units="mm"
     inkscape:cy="-32.205642"
     inkscape:cx="93.633991"
     inkscape:zoom="1.2733931"
     inkscape:pageshadow="2"
     inkscape:pageopacity="0.0"
     borderopacity="1.0"
     bordercolor="#666666"
     pagecolor="#ffffff"
     id="base" />
  <metadata
     id="metadata5">
    <rdf:RDF>
      <cc:Work
         rdf:about="">
        <dc:format>image/svg+xml</dc:format>
        <dc:type
           rdf:resource="http://purl.org/dc/dcmitype/StillImage" />
        <dc:title></dc:title>
      </cc:Work>
    </rdf:RDF>
  </metadata>
  <g
     transform="translate(-79.628617,-94.494231)"
     id="layer1"
     inkscape:groupmode="layer"
     inkscape:label="Layer 1">
    <g
       transform="matrix(0.81386622,0,0,0.81386622,14.821575,17.588568)"
       id="g1438">
      <path
         style="fill:#5e81ac;fill-opacity:1;stroke-width:0.264583"
         id="path983"
         d="m 91.849724,105.47664 -0.452437,-0.6059 a 6.6833749,6.6833749 0 0 1 0,-7.982483 v 0 a 12.075583,12.075583 0 0 1 1.275291,-1.344083 0.57679166,0.57679166 0 0 0 0.185208,-0.415396 0.64029166,0.64029166 0 0 0 -1.277937,0 0.56091666,0.56091666 0 0 0 0.03704,0.198437 l -3.96875,5.360465 a 0.34660416,0.34660416 0 0 0 0,0.39952 l 4.370916,5.87375 a 0.56620833,0.56620833 0 0 0 -0.04498,0.22225 0.64029166,0.64029166 0 0 0 1.280583,0 0.58472916,0.58472916 0 0 0 -0.264583,-0.47889 5.3922083,5.3922083 0 0 1 -1.140354,-1.22767 z"
         class="cls-1" />
      <path
         style="fill:#8fbcbb;fill-opacity:1;stroke-width:0.264583"
         id="path985"
         d="m 81.091766,95.147299 a 0.62177083,0.62177083 0 0 0 -0.640292,-0.60325 0.62441666,0.62441666 0 0 0 -0.640292,0.60325 0.62441666,0.62441666 0 0 0 0.640292,0.60325 v 0 l 1.640417,2.214562 a 5.0747083,5.0747083 0 0 1 -0.02117,6.172739 l -1.214437,1.6166 a 5.9398958,5.9398958 0 0 1 -1.008063,0.96838 0.58472916,0.58472916 0 0 0 -0.219604,0.45244 0.62441666,0.62441666 0 0 0 0.640292,0.60324 0.62441666,0.62441666 0 0 0 0.640291,-0.60324 0.55562499,0.55562499 0 0 0 -0.03704,-0.1905 l 4.280958,-5.72823 a 0.34660416,0.34660416 0 0 0 0,-0.39952 l -4.087813,-5.537742 a 0.56091666,0.56091666 0 0 0 0.02646,-0.171979 z"
         class="cls-2" />
      <path
         style="fill:#ebcb8b;fill-opacity:1;stroke-width:0.264583"
         id="path987"
         d="m 89.455245,106.76516 a 2.7754791,2.7754791 0 0 1 -0.703792,-0.61383 l -2.084916,-2.83369 a 0.38629166,0.38629166 0 0 0 -0.312209,-0.1561 v 0 a 0.396875,0.396875 0 0 0 -0.314854,0.16139 l -2.010833,2.84427 a 2.6458333,2.6458333 0 0 1 -0.695854,0.59796 0.58472916,0.58472916 0 0 0 -0.264584,0.48419 0.640292,0.640292 0 0 0 1.280584,0 0.56356249,0.56356249 0 0 0 -0.03969,-0.19844 v 0 c 0.944563,-1.32292 3.175,-1.34937 4.143375,-0.0291 l 0.02117,0.0265 a 0.51329166,0.51329166 0 0 0 -0.03969,0.20108 0.64029166,0.64029166 0 0 0 1.277938,0 0.58737499,0.58737499 0 0 0 -0.256646,-0.48419 z"
         class="cls-3" />
      <path
         style="fill:#88c0d0;fill-opacity:1;stroke-width:0.264583"
         id="path989"
         d="m 83.298391,95.15259 a 0.59531249,0.59531249 0 0 0 0.283104,0.497417 2.1695833,2.1695833 0 0 1 0.637646,0.568854 l 1.796521,2.54 a 0.38629166,0.38629166 0 0 0 0.3175,0.15875 v 0 a 0.38629166,0.38629166 0 0 0 0.3175,-0.161396 l 1.770062,-2.534708 a 2.365375,2.365375 0 0 1 0.661458,-0.587375 0.58737499,0.58737499 0 0 0 0.264584,-0.492125 0.640292,0.640292 0 0 0 -1.280584,0 0.58208333,0.58208333 0 0 0 0.03969,0.203729 v 0 a 2.19075,2.19075 0 0 1 -3.58775,0 v 0 a 0.52916666,0.52916666 0 0 0 0.04498,-0.211666 0.64029166,0.64029166 0 0 0 -1.280583,0 z"
         class="cls-4" />
    </g>
    <g
       inkscape:label="Layer 1"
       id="layer1-5"
       transform="translate(34.137068,1.3010363)">
      <g
         transform="matrix(1.6606344,0,0,1.6606344,-102.81805,-62.846964)"
         style="fill:#4c566a;fill-opacity:1"
         id="g1127">
        <path
           style="fill:#4c566a;fill-opacity:1;stroke-width:0.264583"
           class="cls-5"
           d="m 97.202245,95.287079 h 0.775229 v 3.96875 h -0.775229 z"
           id="path991" />
        <path
           style="fill:#4c566a;fill-opacity:1;stroke-width:0.264583"
           class="cls-5"
           d="m 98.771224,96.858704 c 0,-1.016 0.597958,-1.651 1.693336,-1.651 1.09537,0 1.68275,0.635 1.68275,1.651 v 2.38125 h -0.78582 v -2.38125 c 0,-0.587375 -0.30162,-0.931333 -0.90752,-0.931333 -0.605892,0 -0.907517,0.343958 -0.907517,0.931333 v 2.38125 h -0.775229 z"
           id="path993" />
        <path
           style="fill:#4c566a;fill-opacity:1;stroke-width:0.264583"
           class="cls-5"
           d="m 102.71881,98.102246 h 0.75671 c 0,0.314854 0.24077,0.529167 0.71437,0.529167 0.4736,0 0.71438,-0.211667 0.71438,-0.529167 0,-0.3175 -0.37042,-0.41275 -0.79375,-0.492125 -0.60061,-0.108479 -1.32292,-0.235479 -1.32292,-1.156229 0,-0.732896 0.55827,-1.246188 1.39964,-1.246188 0.84138,0 1.3679,0.489479 1.39965,1.217084 h -0.72496 c 0,-0.304271 -0.23019,-0.529167 -0.66146,-0.529167 -0.43127,0 -0.65352,0.235479 -0.65352,0.529167 0,0.343958 0.37042,0.41275 0.79375,0.489479 0.60061,0.108479 1.32292,0.238125 1.32292,1.156229 0,0.769937 -0.58738,1.248833 -1.47108,1.248833 -0.88371,0 -1.45521,-0.460375 -1.47373,-1.217083 z"
           id="path995" />
        <path
           style="fill:#4c566a;fill-opacity:1;stroke-width:0.264583"
           class="cls-5"
           d="m 106.3436,95.287079 h 0.77523 v 3.96875 h -0.77523 z"
           id="path997" />
        <path
           style="fill:#4c566a;fill-opacity:1;stroke-width:0.264583"
           class="cls-5"
           d="m 107.8041,97.266163 a 2.1166666,2.1166666 0 0 1 4.09839,-0.722313 h -0.8546 a 1.2514792,1.2514792 0 0 0 -1.13242,-0.616479 1.2752917,1.2752917 0 0 0 -1.32291,1.338792 1.2779375,1.2779375 0 0 0 1.32291,1.344083 1.2435417,1.2435417 0 0 0 1.26736,-0.822854 h -1.50813 v -0.690563 h 2.34157 V 97.4646 a 2.1166666,2.1166666 0 0 1 -4.20688,-0.198437 z"
           id="path999" />
        <path
           style="fill:#4c566a;fill-opacity:1;stroke-width:0.264583"
           class="cls-5"
           d="m 112.65127,95.287079 h 0.77787 v 1.5875 h 1.89706 v -1.5875 h 0.77523 v 3.96875 H 115.3262 V 97.5916 h -1.89706 v 1.664229 h -0.77523 z"
           id="path1001" />
        <path
           style="fill:#4c566a;fill-opacity:1;stroke-width:0.264583"
           class="cls-5"
           d="m 117.92706,96.006746 h -1.18004 v -0.719667 h 3.13531 v 0.719667 h -1.18004 v 3.249083 h -0.77523 z"
           id="path1003" />
        <path
           style="fill:#4c566a;fill-opacity:1;stroke-width:0.264583"
           class="cls-5"
           d="m 120.20247,98.102246 h 0.75671 c 0,0.314854 0.24077,0.529167 0.71438,0.529167 0.4736,0 0.71437,-0.211667 0.71437,-0.529167 0,-0.3175 -0.37041,-0.41275 -0.79375,-0.492125 -0.6006,-0.108479 -1.32291,-0.235479 -1.32291,-1.156229 0,-0.732896 0.55827,-1.246188 1.39964,-1.246188 0.84138,0 1.3679,0.489479 1.39965,1.217084 h -0.72496 c 0,-0.304271 -0.23019,-0.529167 -0.66146,-0.529167 -0.43127,0 -0.65352,0.235479 -0.65352,0.529167 0,0.343958 0.37042,0.41275 0.79375,0.489479 0.6006,0.108479 1.32292,0.238125 1.32292,1.156229 0,0.769937 -0.58738,1.248833 -1.47109,1.248833 -0.88371,0 -1.45521,-0.460375 -1.47373,-1.217083 z"
           id="path1005" />
      </g>
      <g
         style="fill:#4c566a;fill-opacity:1;stroke:none;stroke-width:0.217387;stroke-miterlimit:4;stroke-dasharray:none;stroke-opacity:1"
         id="g1137"
         transform="matrix(1.6606344,0,0,1.6606344,-55.875315,-76.976831)">
        <path
           style="fill:#4c566a;fill-opacity:1;stroke:none;stroke-width:0.217387;stroke-miterlimit:4;stroke-dasharray:none;stroke-opacity:1"
           class="cls-5"
           d="m 97.196953,103.83312 h 2.910417 v 0.71438 h -2.143125 v 0.8837 h 1.791229 v 0.7038 h -1.783292 v 0.94985 h 2.143128 v 0.71437 h -2.91042 z"
           id="path1007" />
        <path
           style="fill:#4c566a;fill-opacity:1;stroke:none;stroke-width:0.217387;stroke-miterlimit:4;stroke-dasharray:none;stroke-opacity:1"
           class="cls-5"
           d="m 101.93035,105.76458 -1.30704,-1.93146 h 0.92604 l 0.91546,1.44727 0.91016,-1.44727 h 0.8943 l -1.32292,1.93146 1.37319,2.02671 h -0.92605 l -0.97366,-1.54781 -0.9869,1.54781 h -0.87048 z"
           id="path1009" />
        <path
           style="fill:#4c566a;fill-opacity:1;stroke:none;stroke-width:0.217387;stroke-miterlimit:4;stroke-dasharray:none;stroke-opacity:1"
           class="cls-5"
           d="m 104.91485,103.83312 h 1.6166 c 1.03188,0 1.48961,0.56886 1.48961,1.34408 0,0.77523 -0.45773,1.34409 -1.48961,1.34409 h -0.84137 v 1.27 h -0.77523 z m 1.63512,1.97379 c 0.52917,0 0.69057,-0.26458 0.69057,-0.62971 0,-0.36512 -0.17992,-0.6297 -0.69057,-0.6297 h -0.85989 v 1.25412 z"
           id="path1011" />
        <path
           style="fill:#4c566a;fill-opacity:1;stroke:none;stroke-width:0.217387;stroke-miterlimit:4;stroke-dasharray:none;stroke-opacity:1"
           class="cls-5"
           d="m 108.62166,103.83312 h 0.77523 v 3.24379 h 2.06904 v 0.71438 h -2.84427 z"
           id="path1013" />
        <path
           style="fill:#4c566a;fill-opacity:1;stroke:none;stroke-width:0.217387;stroke-miterlimit:4;stroke-dasharray:none;stroke-opacity:1"
           class="cls-5"
           d="m 111.70141,105.8122 a 2.1166666,2.1166666 0 1 1 2.11667,2.05846 2.0108333,2.0108333 0 0 1 -2.11667,-2.05846 z m 3.43958,0 a 1.3229166,1.3229166 0 1 0 -2.64583,0 1.3229166,1.3229166 0 1 0 2.64583,0 z"
           id="path1015" />
        <path
           style="fill:#4c566a;fill-opacity:1;stroke:none;stroke-width:0.217387;stroke-miterlimit:4;stroke-dasharray:none;stroke-opacity:1"
           class="cls-5"
           d="m 116.60414,103.83312 h 1.65894 c 1.00541,0 1.44727,0.55033 1.44727,1.30704 a 1.190625,1.190625 0 0 1 -0.82815,1.23032 l 0.97367,1.42081 h -0.92075 l -0.84138,-1.32292 h -0.71437 v 1.32292 h -0.77523 z m 1.67217,1.89971 c 0.48948,0 0.65352,-0.26458 0.65352,-0.59267 0,-0.32808 -0.17463,-0.59266 -0.66411,-0.59266 h -0.89693 v 1.18004 z"
           id="path1017" />
        <path
           style="fill:#4c566a;fill-opacity:1;stroke:none;stroke-width:0.217387;stroke-miterlimit:4;stroke-dasharray:none;stroke-opacity:1"
           class="cls-5"
           d="m 120.45118,103.83312 h 2.91042 v 0.71438 h -2.14313 v 0.8837 h 1.79123 v 0.7038 h -1.79123 v 0.94985 h 2.14313 v 0.71437 h -2.91042 z"
           id="path1019" />
        <path
           style="fill:#4c566a;fill-opacity:1;stroke:none;stroke-width:0.217387;stroke-miterlimit:4;stroke-dasharray:none;stroke-opacity:1"
           class="cls-5"
           d="m 124.11831,103.83312 h 1.65893 c 1.00542,0 1.44728,0.55033 1.44728,1.30704 a 1.190625,1.190625 0 0 1 -0.8308,1.23032 l 0.97367,1.42081 h -0.92075 l -0.84137,-1.32292 h -0.71438 v 1.32292 h -0.77258 z m 1.67216,1.89971 c 0.48948,0 0.65352,-0.26458 0.65352,-0.59267 0,-0.32808 -0.16404,-0.59266 -0.65352,-0.59266 h -0.89693 v 1.18004 z"
           id="path1021" />
      </g>
    </g>
  </g>
</svg>
