<?xml version="1.0" encoding="UTF-8" standalone="no"?>
<svg
   xmlns:dc="http://purl.org/dc/elements/1.1/"
   xmlns:cc="http://creativecommons.org/ns#"
   xmlns:rdf="http://www.w3.org/1999/02/22-rdf-syntax-ns#"
   xmlns:svg="http://www.w3.org/2000/svg"
   xmlns="http://www.w3.org/2000/svg"
   xmlns:sodipodi="http://sodipodi.sourceforge.net/DTD/sodipodi-0.dtd"
   xmlns:inkscape="http://www.inkscape.org/namespaces/inkscape"
   inkscape:version="1.0 (4035a4f, 2020-05-01)"
   sodipodi:docname="iex-logo-pride.svg"
   id="svg8"
   version="1.1"
   viewBox="0 0 13.62604 13.395412"
   height="50.628326"
   width="51.499996">
  <defs
     id="defs2">
    <style
       id="style833">.cls-1{fill:url(#linear-gradient);}.cls-2{fill:url(#linear-gradient-2);}.cls-3{fill:url(#linear-gradient-3);}.cls-4{fill:url(#linear-gradient-4);}.cls-5{font-size:22.88px;fill:#d64b3f;font-family:AllRoundGothic-Demi, All Round Gothic;font-weight:300;letter-spacing:0.01em;}.cls-6{letter-spacing:0em;}.cls-7{letter-spacing:0.01em;}.cls-8{letter-spacing:-0.02em;}</style>
    <style
       id="style945">.cls-1{fill:url(#linear-gradient);}.cls-2{fill:url(#linear-gradient-2);}.cls-3{fill:url(#linear-gradient-3);}.cls-4{fill:url(#linear-gradient-4);}.cls-5{fill:#d64b3f;}</style>
    <style
       id="style833-2">.cls-1{fill:url(#linear-gradient);}.cls-2{fill:url(#linear-gradient-2);}.cls-3{fill:url(#linear-gradient-3);}.cls-4{fill:url(#linear-gradient-4);}.cls-5{font-size:22.88px;fill:#d64b3f;font-family:AllRoundGothic-Demi, All Round Gothic;font-weight:300;letter-spacing:0.01em;}.cls-6{letter-spacing:0em;}.cls-7{letter-spacing:0.01em;}.cls-8{letter-spacing:-0.02em;}</style>
    <style
       id="style945-0">.cls-1{fill:url(#linear-gradient);}.cls-2{fill:url(#linear-gradient-2);}.cls-3{fill:url(#linear-gradient-3);}.cls-4{fill:url(#linear-gradient-4);}.cls-5{fill:#d64b3f;}</style>
    <style
       id="style833-22">.cls-1{fill:url(#linear-gradient);}.cls-2{fill:url(#linear-gradient-2);}.cls-3{fill:url(#linear-gradient-3);}.cls-4{fill:url(#linear-gradient-4);}.cls-5{font-size:22.88px;fill:#d64b3f;font-family:AllRoundGothic-Demi, All Round Gothic;font-weight:300;letter-spacing:0.01em;}.cls-6{letter-spacing:0em;}.cls-7{letter-spacing:0.01em;}.cls-8{letter-spacing:-0.02em;}</style>
    <style
       id="style945-1">.cls-1{fill:url(#linear-gradient);}.cls-2{fill:url(#linear-gradient-2);}.cls-3{fill:url(#linear-gradient-3);}.cls-4{fill:url(#linear-gradient-4);}.cls-5{fill:#d64b3f;}</style>
    <mask
       id="mask900"
       maskUnits="userSpaceOnUse">
      <g
         transform="matrix(35.203322,0,0,35.203322,-2654.5328,-3322.2923)"
         id="g910">
        <path
           style="fill:#5e81ac;fill-opacity:1;stroke-width:0.264583"
           id="path902"
           d="m 91.849724,105.47664 -0.452437,-0.6059 a 6.6833749,6.6833749 0 0 1 0,-7.982483 v 0 a 12.075583,12.075583 0 0 1 1.275291,-1.344083 0.57679166,0.57679166 0 0 0 0.185208,-0.415396 0.64029166,0.64029166 0 0 0 -1.277937,0 0.56091666,0.56091666 0 0 0 0.03704,0.198437 l -3.96875,5.360465 a 0.34660416,0.34660416 0 0 0 0,0.39952 l 4.370916,5.87375 a 0.56620833,0.56620833 0 0 0 -0.04498,0.22225 0.64029166,0.64029166 0 0 0 1.280583,0 0.58472916,0.58472916 0 0 0 -0.264583,-0.47889 5.3922083,5.3922083 0 0 1 -1.140354,-1.22767 z"
           class="cls-1" />
        <path
           style="fill:#8fbcbb;fill-opacity:1;stroke-width:0.264583"
           id="path904"
           d="m 81.091766,95.147299 a 0.62177083,0.62177083 0 0 0 -0.640292,-0.60325 0.62441666,0.62441666 0 0 0 -0.640292,0.60325 0.62441666,0.62441666 0 0 0 0.640292,0.60325 v 0 l 1.640417,2.214562 a 5.0747083,5.0747083 0 0 1 -0.02117,6.172739 l -1.214437,1.6166 a 5.9398958,5.9398958 0 0 1 -1.008063,0.96838 0.58472916,0.58472916 0 0 0 -0.219604,0.45244 0.62441666,0.62441666 0 0 0 0.640292,0.60324 0.62441666,0.62441666 0 0 0 0.640291,-0.60324 0.55562499,0.55562499 0 0 0 -0.03704,-0.1905 l 4.280958,-5.72823 a 0.34660416,0.34660416 0 0 0 0,-0.39952 l -4.087813,-5.537742 a 0.56091666,0.56091666 0 0 0 0.02646,-0.171979 z"
           class="cls-2" />
        <path
           style="fill:#ebcb8b;fill-opacity:1;stroke-width:0.264583"
           id="path906"
           d="m 89.455245,106.76516 a 2.7754791,2.7754791 0 0 1 -0.703792,-0.61383 l -2.084916,-2.83369 a 0.38629166,0.38629166 0 0 0 -0.312209,-0.1561 v 0 a 0.396875,0.396875 0 0 0 -0.314854,0.16139 l -2.010833,2.84427 a 2.6458333,2.6458333 0 0 1 -0.695854,0.59796 0.58472916,0.58472916 0 0 0 -0.264584,0.48419 0.640292,0.640292 0 0 0 1.280584,0 0.56356249,0.56356249 0 0 0 -0.03969,-0.19844 v 0 c 0.944563,-1.32292 3.175,-1.34937 4.143375,-0.0291 l 0.02117,0.0265 a 0.51329166,0.51329166 0 0 0 -0.03969,0.20108 0.64029166,0.64029166 0 0 0 1.277938,0 0.58737499,0.58737499 0 0 0 -0.256646,-0.48419 z"
           class="cls-3" />
        <path
           style="fill:#88c0d0;fill-opacity:1;stroke-width:0.264583"
           id="path908"
           d="m 83.298391,95.15259 a 0.59531249,0.59531249 0 0 0 0.283104,0.497417 2.1695833,2.1695833 0 0 1 0.637646,0.568854 l 1.796521,2.54 a 0.38629166,0.38629166 0 0 0 0.3175,0.15875 v 0 a 0.38629166,0.38629166 0 0 0 0.3175,-0.161396 l 1.770062,-2.534708 a 2.365375,2.365375 0 0 1 0.661458,-0.587375 0.58737499,0.58737499 0 0 0 0.264584,-0.492125 0.640292,0.640292 0 0 0 -1.280584,0 0.58208333,0.58208333 0 0 0 0.03969,0.203729 v 0 a 2.19075,2.19075 0 0 1 -3.58775,0 v 0 a 0.52916666,0.52916666 0 0 0 0.04498,-0.211666 0.64029166,0.64029166 0 0 0 -1.280583,0 z"
           class="cls-4" />
      </g>
    </mask>
  </defs>
  <sodipodi:namedview
     inkscape:snap-nodes="false"
     units="px"
     inkscape:window-maximized="0"
     inkscape:window-y="165"
     inkscape:window-x="463"
     inkscape:window-height="1174"
     inkscape:window-width="1497"
     fit-margin-bottom="0"
     fit-margin-right="0"
     fit-margin-left="0"
     fit-margin-top="0"
     showgrid="false"
     inkscape:document-rotation="0"
     inkscape:current-layer="layer1"
     inkscape:document-units="mm"
     inkscape:cy="18.999252"
     inkscape:cx="4.8027333"
     inkscape:zoom="5.3647776"
     inkscape:pageshadow="2"
     inkscape:pageopacity="0.0"
     borderopacity="1.0"
     bordercolor="#666666"
     pagecolor="#ffffff"
     id="base" />
  <metadata
     id="metadata5">
    <rdf:RDF>
      <cc:Work
         rdf:about="">
        <dc:format>image/svg+xml</dc:format>
        <dc:type
           rdf:resource="http://purl.org/dc/dcmitype/StillImage" />
        <dc:title></dc:title>
      </cc:Work>
    </rdf:RDF>
  </metadata>
  <g
     transform="translate(-79.628617,-94.49423)"
     id="layer1"
     inkscape:groupmode="layer"
     inkscape:label="Layer 1">
    <g
       mask="url(#mask900)"
       transform="matrix(0.02840641,0,0,0.02840641,75.405747,94.374396)"
       id="g892">
      <path
         d="m 0,0 c 259,0 518,0 777,0 0,160 0,320 0,480 -259,0 -518,0 -777,0 C 0,320 0,160 0,0 Z"
         style="fill:#750787"
         id="rect866" />
      <path
         d="m 0,0 c 259,0 518,0 777,0 0,133.33333 0,266.66667 0,400 -259,0 -518,0 -777,0 C 0,266.66667 0,133.33333 0,0 Z"
         style="fill:#004dff"
         id="rect868" />
      <path
         d="m 0,0 c 259,0 518,0 777,0 0,106.66667 0,213.33333 0,320 -259,0 -518,0 -777,0 C 0,213.33333 0,106.66667 0,0 Z"
         style="fill:#008026"
         id="rect870" />
      <path
         d="m 0,0 c 259,0 518,0 777,0 0,80 0,160 0,240 -259,0 -518,0 -777,0 C 0,160 0,80 0,0 Z"
         style="fill:#ffed00"
         id="rect872" />
      <path
         d="m 0,0 c 259,0 518,0 777,0 0,53.333333 0,106.66667 0,160 -259,0 -518,0 -777,0 C 0,106.66667 0,53.333333 0,0 Z"
         style="fill:#ff8c00"
         id="rect874" />
      <path
         d="m 0,0 c 259,0 518,0 777,0 0,26.666667 0,53.333333 0,80 C 518,80 259,80 0,80 0,53.333333 0,26.666667 0,0 Z"
         style="fill:#e40303"
         id="rect876" />
    </g>
  </g>
</svg>
